<?xml version="1.0" encoding="UTF-8"?>
<svg id="_圖層_2" data-name="圖層 2" xmlns="http://www.w3.org/2000/svg" xmlns:xlink="http://www.w3.org/1999/xlink" viewBox="0 0 842.62 596.49">
  <defs>
    <style>
      .cls-1 {
        fill: none;
      }

      .cls-2 {
        fill: #1a6f67;
      }

      .cls-3 {
        opacity: .05;
      }

      .cls-4 {
        clip-path: url(#clippath);
      }
    </style>
    <clipPath id="clippath">
      <rect class="cls-1" width="842.62" height="596.49"/>
    </clipPath>
  </defs>
  <g id="_圖層_1-2" data-name="圖層 1">
    <g class="cls-4">
      <g class="cls-3">
        <g>
          <path class="cls-2" d="M798.3,230.78c-5.42,0-9.8,4.38-9.8,9.8v204.07c0,29.17-11.92,55.66-31.1,74.88-19.19,19.18-45.68,31.09-74.86,31.09-22.52,0-43.39-7.05-60.55-19.03-12.66-8.85-23.35-20.46-31.15-33.9l86.32-77.21c2.16-1.94,3.25-4.58,3.25-7.26h.04v-31.22c0-5.41-4.38-9.79-9.79-9.79h-57.58c-5.41,0-9.81,4.38-9.81,9.79v41.43c0,5.43,4.39,9.78,9.81,9.78l47.75-41.41v17.1l-88.75,79.38-.1.06h.01l-5.29,4.73c9.27,22.05,24.69,40.95,44.1,54.52,20.39,14.28,45.12,22.65,71.72,22.65,34.59,0,65.99-14.09,88.74-36.86,22.73-22.72,36.83-54.13,36.83-88.73v-204.07c0-5.42-4.4-9.8-9.79-9.8Z"/>
          <path class="cls-2" d="M801.29,174.2c-.22-.08-.45-.14-.67-.2l-.45-.13v.04c-2.82-.55-5.83.09-8.2,2.09l-45.65,38.7c-2.33,1.95-4.12,5.96-4.12,9.01v220.96c0,16.39-6.71,31.31-17.53,42.12-10.83,10.83-25.75,17.52-42.13,17.52-8.65,0-16.86-1.84-24.26-5.13-7.73-3.49-14.6-8.52-20.15-14.76h-.02c-3.61-4.03-9.78-4.38-13.79-.77-4.01,3.6-4.37,9.77-.77,13.78,7.41,8.25,16.52,14.98,26.76,19.57,9.92,4.43,20.82,6.91,32.21,6.91,21.8,0,41.62-8.91,55.99-23.27,14.36-14.35,23.25-34.2,23.25-56v-217.45l37.38-31.63c25.33,11.82,42.88,37.47,42.88,67.22v33.72c17.72,0,34.36-10.55,34.36-28.25v-72.52l-75.1-21.55Z"/>
          <path class="cls-2" d="M874.98,173.6v-44.56l-28.08-15.7v25.45l-25.45-7.47v-29.69l-21.78-10.02v-18.01l40.03-11.86-39.55-11.71c-.31-.11-.65-.15-1-.15-1.92,0-3.51,1.57-3.51,3.52v97.05l.56.14,78.78,22.98Z"/>
          <polygon class="cls-2" points="743.71 112.47 703.09 125.55 703.09 160.21 743.71 149.88 743.71 112.47"/>
          <polygon class="cls-2" points="792.41 149.58 791.87 149.72 703.09 169.78 703.09 190.53 792.41 170.34 792.41 149.58"/>
          <polygon class="cls-2" points="731.88 274.64 731.88 217.54 750.44 191.86 707.62 201.85 707.62 284.63 731.88 274.64"/>
        </g>
        <g>
          <path class="cls-2" d="M1017.62,516.09l-32.23-32.54c-3.7-3.76-9.73-3.89-13.61-.31-8.37,7.72-16.82,13.87-25.11,18.27-7.64,4.05-17.32,6.09-28.79,6.09-8.36,0-16.11-1.64-23.01-4.84-6.95-3.24-12.95-7.69-17.84-13.22-5.01-5.66-8.98-12.38-11.83-20-2.83-7.57-4.29-15.81-4.29-25.16,0-8.66,1.44-16.85,4.29-24.32,2.84-7.5,6.86-14.16,11.93-19.8,4.95-5.51,11.01-9.91,17.97-13.08,6.91-3.12,14.56-4.71,22.77-4.71,10.04,0,19.15,1.97,27.08,5.89,4.85,2.4,10.73.4,13.13-4.45,2.4-4.86.39-10.73-4.46-13.13-10.64-5.26-22.67-7.92-35.75-7.92-11.01,0-21.4,2.17-30.86,6.47-9.45,4.28-17.69,10.28-24.45,17.81-6.71,7.44-11.99,16.19-15.69,25.95-3.7,9.69-5.57,20.22-5.57,31.95,0,11.06,1.87,21.63,5.54,31.39,3.68,9.83,8.89,18.62,15.48,26.09,6.71,7.58,14.86,13.64,24.27,18.02,9.52,4.44,20.04,6.68,31.29,6.68,14.68,0,27.48-2.82,37.98-8.38,7.37-3.9,14.77-8.92,22.07-14.94l18.94,19.13c-3.49,3.36-7.11,6.51-10.74,9.4-5.78,4.57-12.18,8.56-19.03,11.84-6.81,3.25-14.41,5.76-22.6,7.46-8.29,1.71-17.8,2.59-28.27,2.59-15.46,0-30.01-2.84-43.23-8.45-13.18-5.58-24.74-13.31-34.33-23.02-9.58-9.66-17.17-21.27-22.58-34.47-5.42-13.26-8.16-27.62-8.16-43.34s2.74-29.35,8.14-42.48c5.43-13.13,13.04-24.81,22.66-34.74,9.57-9.86,21.22-17.76,34.63-23.47,13.39-5.7,28.48-8.6,44.84-8.6,10.07,0,19.34.83,27.54,2.45,8.14,1.61,15.64,3.85,22.27,6.64,6.55,2.79,12.68,6.21,18.18,10.15,5.68,4.06,11,8.57,15.87,13.42,3.83,3.84,10.05,3.84,13.86,0,3.84-3.83,3.84-10.03.02-13.87-5.62-5.61-11.79-10.85-18.33-15.52-6.68-4.78-14.08-8.88-21.96-12.24-7.86-3.33-16.65-5.97-26.12-7.84-9.45-1.86-19.98-2.81-31.33-2.81-19.03,0-36.69,3.42-52.52,10.16-15.84,6.73-29.65,16.1-41.03,27.84-11.38,11.72-20.35,25.49-26.71,40.94-6.39,15.52-9.62,32.31-9.62,50.6s3.23,34.47,9.61,50.09c6.38,15.61,15.4,29.35,26.79,40.86,11.43,11.53,25.11,20.7,40.63,27.29,15.65,6.62,32.77,10,50.88,10,11.8,0,22.66-1.01,32.24-3,9.75-2.03,18.86-5.03,27.1-8.99,8.17-3.9,15.81-8.68,22.73-14.14,6.74-5.36,13.32-11.44,19.52-18.12,3.57-3.84,3.49-9.83-.2-13.59Z"/>
          <polygon class="cls-2" points="684.73 211.05 669.51 211.05 669.51 233.44 658.35 233.44 658.35 211.05 643.14 211.05 643.14 233.44 629.27 233.44 629.27 211.05 614.07 211.05 614.07 233.44 614.07 259.67 614.07 283.61 624.92 283.61 624.92 343.14 674.79 343.14 674.79 316.78 656.79 316.78 656.79 297.26 674.79 297.26 674.79 283.61 684.8 283.61 684.8 233.44 684.73 233.44 684.73 211.05"/>
        </g>
      </g>
      <g class="cls-3">
        <g>
          <path class="cls-2" d="M-5.78,230.78c-5.42,0-9.8,4.38-9.8,9.8v204.07c0,29.17-11.92,55.66-31.1,74.88-19.19,19.18-45.68,31.09-74.86,31.09-22.52,0-43.39-7.05-60.55-19.03-12.66-8.85-23.35-20.46-31.15-33.9l86.32-77.21c2.16-1.94,3.25-4.58,3.25-7.26h.04v-31.22c0-5.41-4.38-9.79-9.79-9.79h-57.58c-5.41,0-9.81,4.38-9.81,9.79v41.43c0,5.43,4.39,9.78,9.81,9.78l47.75-41.41v17.1l-88.75,79.38-.1.06h.01l-5.29,4.73c9.27,22.05,24.69,40.95,44.1,54.52,20.39,14.28,45.12,22.65,71.72,22.65,34.59,0,65.99-14.09,88.74-36.86,22.73-22.72,36.83-54.13,36.83-88.73v-204.07c0-5.42-4.4-9.8-9.79-9.8Z"/>
          <path class="cls-2" d="M-2.79,174.2c-.22-.08-.45-.14-.67-.2l-.45-.13v.04c-2.82-.55-5.83.09-8.2,2.09l-45.65,38.7c-2.33,1.95-4.12,5.96-4.12,9.01v220.96c0,16.39-6.71,31.31-17.53,42.12-10.83,10.83-25.75,17.52-42.13,17.52-8.65,0-16.86-1.84-24.26-5.13-7.73-3.49-14.6-8.52-20.15-14.76h-.02c-3.61-4.03-9.78-4.38-13.79-.77-4.01,3.6-4.37,9.77-.77,13.78,7.41,8.25,16.52,14.98,26.76,19.57,9.92,4.43,20.82,6.91,32.21,6.91,21.8,0,41.62-8.91,55.99-23.27,14.36-14.35,23.25-34.2,23.25-56v-217.45l37.38-31.63c25.33,11.82,42.88,37.47,42.88,67.22v33.72c17.72,0,34.36-10.55,34.36-28.25v-72.52L-2.79,174.2Z"/>
          <path class="cls-2" d="M70.9,173.6v-44.56l-28.08-15.7v25.45l-25.45-7.47v-29.69l-21.78-10.02v-18.01l40.03-11.86L-3.92,50.05c-.31-.11-.65-.15-1-.15-1.92,0-3.51,1.57-3.51,3.52v97.05l.56.14,78.78,22.98Z"/>
        </g>
        <g>
          <path class="cls-2" d="M213.55,516.09l-32.23-32.54c-3.7-3.76-9.73-3.89-13.61-.31-8.37,7.72-16.82,13.87-25.11,18.27-7.64,4.05-17.32,6.09-28.79,6.09-8.36,0-16.11-1.64-23.01-4.84-6.95-3.24-12.95-7.69-17.84-13.22-5.01-5.66-8.98-12.38-11.83-20-2.83-7.57-4.29-15.81-4.29-25.16,0-8.66,1.44-16.85,4.29-24.32,2.84-7.5,6.86-14.16,11.93-19.8,4.95-5.51,11.01-9.91,17.97-13.08,6.91-3.12,14.56-4.71,22.77-4.71,10.04,0,19.15,1.97,27.08,5.89,4.85,2.4,10.73.4,13.13-4.45,2.4-4.86.39-10.73-4.46-13.13-10.64-5.26-22.67-7.92-35.75-7.92-11.01,0-21.4,2.17-30.86,6.47-9.45,4.28-17.69,10.28-24.45,17.81-6.71,7.44-11.99,16.19-15.69,25.95-3.7,9.69-5.57,20.22-5.57,31.95,0,11.06,1.87,21.63,5.54,31.39,3.68,9.83,8.89,18.62,15.48,26.09,6.71,7.58,14.86,13.64,24.27,18.02,9.52,4.44,20.04,6.68,31.29,6.68,14.68,0,27.48-2.82,37.98-8.38,7.37-3.9,14.77-8.92,22.07-14.94l18.94,19.13c-3.49,3.36-7.11,6.51-10.74,9.4-5.78,4.57-12.18,8.56-19.03,11.84-6.81,3.25-14.41,5.76-22.6,7.46-8.29,1.71-17.8,2.59-28.27,2.59-15.46,0-30.01-2.84-43.23-8.45-13.18-5.58-24.74-13.31-34.33-23.02-9.58-9.66-17.17-21.27-22.58-34.47-5.42-13.26-8.16-27.62-8.16-43.34s2.74-29.35,8.14-42.48c5.43-13.13,13.04-24.81,22.66-34.74,9.57-9.86,21.22-17.76,34.63-23.47,13.39-5.7,28.48-8.6,44.84-8.6,10.07,0,19.34.83,27.54,2.45,8.14,1.61,15.64,3.85,22.27,6.64,6.55,2.79,12.68,6.21,18.18,10.15,5.68,4.06,11,8.57,15.87,13.42,3.83,3.84,10.05,3.84,13.86,0,3.84-3.83,3.84-10.03.02-13.87-5.62-5.61-11.79-10.85-18.33-15.52-6.68-4.78-14.08-8.88-21.96-12.24-7.86-3.33-16.65-5.97-26.12-7.84-9.45-1.86-19.98-2.81-31.33-2.81-19.03,0-36.69,3.42-52.52,10.16-15.84,6.73-29.65,16.1-41.03,27.84-11.38,11.72-20.35,25.49-26.71,40.94-6.39,15.52-9.62,32.31-9.62,50.6s3.23,34.47,9.61,50.09c6.38,15.61,15.4,29.35,26.79,40.86,11.43,11.53,25.11,20.7,40.63,27.29,15.65,6.62,32.77,10,50.88,10,11.8,0,22.66-1.01,32.24-3,9.75-2.03,18.86-5.03,27.1-8.99,8.17-3.9,15.81-8.68,22.73-14.14,6.74-5.36,13.32-11.44,19.52-18.12,3.57-3.84,3.49-9.83-.2-13.59Z"/>
          <path class="cls-2" d="M101.58,307.47h49.87v-23.86h10.02v-50.17h-.07v-22.39h-15.2v22.39h-11.18v-22.39h-15.2v22.39h-13.88v-22.39h-15.21v72.56h10.85v23.86ZM133.34,248.95h18.55v18.55h-18.55v-18.55Z"/>
        </g>
      </g>
    </g>
  </g>
</svg>