<?xml version="1.0" encoding="UTF-8"?>
<svg id="_圖層_2" data-name="圖層 2" xmlns="http://www.w3.org/2000/svg" viewBox="0 0 165.06 231.22">
  <defs>
    <style>
      .cls-1 {
        fill: #1a6f67;
      }

      .cls-2 {
        fill: #595858;
      }

      .cls-3 {
        fill: #e0a00b;
      }
    </style>
  </defs>
  <g id="_圖層_1-2" data-name="圖層 1">
    <g>
      <g>
        <path class="cls-2" d="M18.96,209.47c0,1.3-.07,2.24-.21,2.83-.25,1.02-.77,1.78-1.58,2.27-.64.4-1.4.6-2.3.6-1.82,0-3.38-.76-4.66-2.28l2.28-2.03c.85.92,1.62,1.38,2.31,1.38.47,0,.78-.28.91-.84.06-.24.09-.7.09-1.36v-11.04h3.15v10.46Z"/>
        <path class="cls-2" d="M34.65,214.78h-3.17v-6.92h-5.56v6.92h-3.18v-15.76h3.18v5.95h5.56v-5.95h3.17v15.76Z"/>
        <path class="cls-2" d="M47.46,214.78h-9.04v-15.76h9.04v2.93h-5.9v2.87h5.9v2.87h-5.9v4.16h5.9v2.94Z"/>
        <path class="cls-2" d="M63.68,214.78h-3.03l-7.09-10.34v10.34h-3.15v-15.76h3.02l7.1,10.37v-10.37h3.15v15.76Z"/>
        <path class="cls-2" d="M90.34,201.79l-2.21,2c-1.5-1.51-3.18-2.27-5.06-2.27-1.59,0-2.92.51-4,1.54-1.08,1.03-1.62,2.3-1.62,3.82,0,2.18.92,3.75,2.75,4.72.88.46,1.85.7,2.92.7,1.01,0,1.93-.2,2.75-.6.69-.34,1.44-.9,2.25-1.67l2.14,2.12c-1.14,1.06-2.22,1.81-3.25,2.27-1.14.5-2.45.75-3.94.75-2.57,0-4.68-.77-6.32-2.31-1.64-1.54-2.46-3.54-2.46-5.99,0-3.21,1.44-5.59,4.33-7.14,1.39-.74,2.88-1.12,4.49-1.12,2.9,0,5.31,1.06,7.21,3.17Z"/>
        <path class="cls-2" d="M105,214.78h-3.17v-6.92h-5.56v6.92h-3.18v-15.76h3.18v5.95h5.56v-5.95h3.17v15.76Z"/>
        <path class="cls-2" d="M117.82,214.78h-9.04v-15.76h9.04v2.93h-5.9v2.87h5.9v2.87h-5.9v4.16h5.9v2.94Z"/>
        <path class="cls-2" d="M134.03,214.78h-3.03l-7.09-10.34v10.34h-3.15v-15.76h3.02l7.1,10.37v-10.37h3.15v15.76Z"/>
        <path class="cls-2" d="M154.26,207.46c.05,1.31-.33,2.61-1.12,3.92-1.54,2.53-3.91,3.8-7.11,3.8-1.68,0-3.18-.34-4.51-1.02-1.38-.71-2.47-1.74-3.27-3.09-.79-1.31-1.18-2.73-1.18-4.25,0-2.09.72-3.9,2.17-5.44,1.72-1.84,3.95-2.75,6.71-2.75s5.22.99,7.14,2.97l-2.22,2.09c-1.4-1.42-3.03-2.13-4.9-2.13-1.6,0-2.95.5-4.06,1.5-1.13,1.02-1.7,2.28-1.7,3.8s.58,2.87,1.75,3.92c1.14,1.03,2.54,1.55,4.19,1.55,2.15,0,3.67-.9,4.56-2.71h-4.79v-2.81h8.33l.02.66Z"/>
        <path class="cls-2" d="M16.85,230.98h-.96v-9.7h.96v9.7Z"/>
        <path class="cls-2" d="M26.69,230.98h-.22l-6.4-7.33v7.33h-1v-9.7h.21l6.44,7.42v-7.42h.96v9.7Z"/>
        <path class="cls-2" d="M36.68,230.98h-.22l-6.4-7.33v7.33h-1v-9.7h.21l6.44,7.42v-7.42h.96v9.7Z"/>
        <path class="cls-2" d="M48.83,226.13c0,1.43-.49,2.63-1.47,3.62-.98.98-2.19,1.48-3.62,1.48s-2.64-.49-3.63-1.46c-.99-.97-1.49-2.17-1.49-3.59,0-.92.22-1.78.67-2.58.44-.79,1.06-1.42,1.85-1.88.78-.45,1.62-.67,2.52-.67,1.46,0,2.68.48,3.67,1.44,1,.98,1.5,2.19,1.5,3.64ZM47.83,226.13c0-1.6-.68-2.79-2.05-3.57-.65-.37-1.34-.56-2.08-.56s-1.41.19-2.05.56c-.64.37-1.14.87-1.5,1.51-.36.63-.54,1.34-.54,2.11,0,1.15.39,2.12,1.18,2.91.79.79,1.76,1.19,2.91,1.19.75,0,1.45-.18,2.08-.54.64-.36,1.14-.86,1.5-1.49.36-.64.54-1.34.54-2.11Z"/>
        <path class="cls-2" d="M58.62,221.28l-4.22,9.7h-.21l-4.16-9.7h1.05l3.21,7.5,3.27-7.5h1.05Z"/>
        <path class="cls-2" d="M68.74,230.98h-1.04l-1.52-3.19h-4.18l-1.52,3.19h-1.08l4.58-9.7h.24l4.52,9.7ZM65.74,226.85l-1.65-3.51-1.67,3.51h3.32Z"/>
        <path class="cls-2" d="M74.6,222.23h-2.16v8.75h-.98v-8.75h-2.17v-.95h5.31v.95Z"/>
        <path class="cls-2" d="M76.82,230.98h-.96v-9.7h.96v9.7Z"/>
        <path class="cls-2" d="M88.83,226.13c0,1.43-.49,2.63-1.47,3.62-.98.98-2.19,1.48-3.62,1.48s-2.64-.49-3.63-1.46c-.99-.97-1.49-2.17-1.49-3.59,0-.92.22-1.78.67-2.58.44-.79,1.06-1.42,1.85-1.88.78-.45,1.62-.67,2.52-.67,1.46,0,2.68.48,3.67,1.44,1,.98,1.5,2.19,1.5,3.64ZM87.83,226.13c0-1.6-.68-2.79-2.05-3.57-.65-.37-1.34-.56-2.08-.56s-1.41.19-2.05.56c-.64.37-1.14.87-1.5,1.51-.36.63-.54,1.34-.54,2.11,0,1.15.39,2.12,1.18,2.91.79.79,1.76,1.19,2.91,1.19.75,0,1.45-.18,2.08-.54.64-.36,1.14-.86,1.5-1.49.36-.64.54-1.34.54-2.11Z"/>
        <path class="cls-2" d="M98.39,230.98h-.22l-6.4-7.33v7.33h-1v-9.7h.21l6.44,7.42v-7.42h.96v9.7Z"/>
        <path class="cls-2" d="M109.93,228.61c0,.73-.28,1.36-.83,1.87-.54.5-1.18.75-1.92.75-1.2,0-2.18-.68-2.93-2.05l.82-.5c.58,1.06,1.25,1.6,2.01,1.6.72,0,1.25-.28,1.57-.84.15-.25.22-.52.22-.81,0-.33-.11-.64-.33-.96-.29-.41-.82-.9-1.6-1.48-.8-.59-1.32-1.05-1.58-1.4-.34-.46-.51-.96-.51-1.48,0-.9.39-1.55,1.16-1.98.36-.2.76-.3,1.19-.3.92,0,1.77.53,2.54,1.59l-.79.6c-.29-.39-.55-.66-.75-.83-.31-.24-.65-.36-1.02-.36s-.69.11-.94.34c-.26.23-.4.53-.4.9,0,.44.21.86.61,1.26.12.11.54.44,1.25.97.66.49,1.15.93,1.48,1.32.48.58.72,1.18.72,1.79Z"/>
        <path class="cls-2" d="M116.34,222.23h-2.16v8.75h-.98v-8.75h-2.17v-.95h5.31v.95Z"/>
        <path class="cls-2" d="M124.18,227.14c0,.83-.07,1.47-.2,1.92-.19.64-.54,1.16-1.06,1.56-.52.4-1.13.6-1.86.6s-1.37-.17-1.92-.5c-.6-.37-1-.88-1.21-1.54-.12-.38-.18-1.06-.18-2.04v-5.85h.96v5.85c0,.67.01,1.1.04,1.3.1.76.48,1.29,1.15,1.6.37.18.73.26,1.1.26.69,0,1.24-.26,1.67-.77.2-.24.34-.53.44-.88.07-.25.1-.75.1-1.51v-5.85h.96v5.85Z"/>
        <path class="cls-2" d="M134.74,226.25c0,.88-.18,1.69-.55,2.42-.4.8-.97,1.39-1.71,1.77-.67.35-1.61.53-2.82.53h-3.09v-9.7h2.01c1.45,0,2.5.12,3.16.35.99.35,1.74.95,2.26,1.8.49.8.73,1.74.73,2.82ZM133.76,226.27c0-.9-.21-1.68-.64-2.34-.45-.69-1.09-1.17-1.93-1.42-.61-.18-1.61-.28-3-.28h-.69v7.82h1.12c1.34,0,2.27-.08,2.79-.25.77-.25,1.36-.7,1.77-1.36.38-.61.57-1.34.57-2.18Z"/>
        <path class="cls-2" d="M137.44,230.98h-.96v-9.7h.96v9.7Z"/>
        <path class="cls-2" d="M149.45,226.13c0,1.43-.49,2.63-1.47,3.62-.98.98-2.19,1.48-3.62,1.48s-2.64-.49-3.63-1.46c-.99-.97-1.49-2.17-1.49-3.59,0-.92.22-1.78.67-2.58.44-.79,1.06-1.42,1.85-1.88.78-.45,1.62-.67,2.52-.67,1.46,0,2.68.48,3.67,1.44,1,.98,1.5,2.19,1.5,3.64ZM148.46,226.13c0-1.6-.68-2.79-2.05-3.57-.65-.37-1.34-.56-2.08-.56s-1.41.19-2.05.56c-.64.37-1.14.87-1.5,1.51-.36.63-.54,1.34-.54,2.11,0,1.15.39,2.12,1.18,2.91.79.79,1.76,1.19,2.91,1.19.75,0,1.45-.18,2.08-.54.64-.36,1.14-.86,1.5-1.49.36-.64.54-1.34.54-2.11Z"/>
      </g>
      <g>
        <path class="cls-3" d="M84.25,65.8c-1.97,0-3.57,1.59-3.57,3.56v74.23c0,10.61-4.34,20.25-11.31,27.23-6.98,6.98-16.62,11.31-27.23,11.31-8.19,0-15.78-2.56-22.03-6.92-4.61-3.22-8.49-7.44-11.33-12.33l31.4-28.08c.78-.7,1.18-1.66,1.18-2.64h.02v-11.36c0-1.97-1.6-3.56-3.56-3.56h-20.95c-1.97,0-3.57,1.6-3.57,3.56v15.07c0,1.98,1.6,3.56,3.57,3.56l17.37-15.06v6.22L1.96,159.46l-.04.02h0l-1.93,1.72c3.38,8.02,8.98,14.9,16.04,19.83,7.42,5.19,16.41,8.24,26.09,8.24,12.58,0,24-5.13,32.28-13.41,8.27-8.27,13.4-19.69,13.4-32.28v-74.23c0-1.97-1.6-3.56-3.56-3.56Z"/>
        <path class="cls-3" d="M85.34,45.21c-.08-.03-.16-.05-.25-.07l-.16-.05v.02c-1.03-.2-2.12.03-2.98.76l-16.61,14.08c-.85.71-1.5,2.17-1.5,3.28v80.38c0,5.96-2.44,11.39-6.38,15.32-3.94,3.94-9.36,6.37-15.32,6.37-3.15,0-6.13-.67-8.82-1.87-2.81-1.27-5.31-3.1-7.34-5.37h0c-1.31-1.47-3.56-1.59-5.01-.28-1.46,1.31-1.59,3.55-.28,5.01,2.7,3,6.01,5.45,9.73,7.12,3.61,1.61,7.57,2.51,11.72,2.51,7.93,0,15.14-3.24,20.37-8.47,5.22-5.22,8.46-12.44,8.46-20.37v-79.1l13.59-11.51c9.21,4.3,15.6,13.63,15.6,24.45v12.26c6.44,0,12.5-3.84,12.5-10.28v-26.38l-27.32-7.84Z"/>
        <path class="cls-3" d="M112.14,45v-16.21l-10.22-5.71v9.26l-9.25-2.71v-10.8l-7.92-3.64v-6.55l14.56-4.31L84.92.05c-.11-.04-.24-.05-.36-.05-.71,0-1.28.57-1.28,1.28v35.3l.2.05,28.66,8.36Z"/>
        <polygon class="cls-3" points="64.39 22.76 49.62 27.52 49.62 40.13 64.39 36.37 64.39 22.76"/>
        <polygon class="cls-3" points="82.1 36.26 81.91 36.31 49.62 43.61 49.62 51.16 82.1 43.81 82.1 36.26"/>
        <polygon class="cls-3" points="60.09 81.75 60.09 60.98 66.84 51.64 51.26 55.27 51.26 85.38 60.09 81.75"/>
      </g>
      <g>
        <path class="cls-1" d="M164.03,169.58l-11.72-11.84c-1.35-1.37-3.54-1.42-4.95-.11-3.04,2.81-6.12,5.04-9.13,6.64-2.78,1.47-6.31,2.22-10.47,2.22-3.04,0-5.86-.6-8.37-1.76-2.53-1.18-4.71-2.8-6.49-4.81-1.82-2.06-3.26-4.5-4.3-7.28-1.04-2.75-1.56-5.75-1.56-9.15,0-3.15.52-6.13,1.56-8.85,1.04-2.73,2.5-5.15,4.34-7.2,1.8-2.01,4.01-3.61,6.54-4.76,2.51-1.13,5.3-1.71,8.28-1.71,3.66,0,6.96.72,9.85,2.14,1.76.88,3.9.14,4.78-1.62.87-1.77.15-3.9-1.62-4.77-3.87-1.92-8.25-2.88-13.01-2.88-4,0-7.78.79-11.23,2.35-3.44,1.56-6.43,3.74-8.89,6.48-2.44,2.71-4.36,5.89-5.71,9.44-1.34,3.53-2.03,7.36-2.03,11.62,0,4.02.68,7.87,2.02,11.42,1.34,3.58,3.23,6.77,5.63,9.49,2.44,2.75,5.41,4.96,8.83,6.55,3.46,1.62,7.29,2.43,11.38,2.43,5.34,0,10-1.03,13.82-3.05,2.68-1.42,5.37-3.24,8.03-5.44l6.89,6.96c-1.27,1.22-2.58,2.37-3.91,3.42-2.1,1.66-4.43,3.11-6.92,4.3-2.48,1.19-5.24,2.1-8.22,2.72-3.01.62-6.47.94-10.28.94-5.62,0-10.92-1.03-15.73-3.07-4.79-2.03-9-4.85-12.49-8.38-3.49-3.52-6.25-7.74-8.21-12.54-1.97-4.83-2.97-10.05-2.97-15.77s1-10.67,2.96-15.45c1.97-4.78,4.74-9.03,8.24-12.64,3.48-3.59,7.71-6.46,12.59-8.53,4.87-2.08,10.36-3.13,16.31-3.13,3.66,0,7.04.3,10.02.89,2.96.59,5.69,1.4,8.1,2.42,2.38,1.02,4.61,2.26,6.62,3.69,2.07,1.48,4,3.12,5.77,4.88,1.39,1.4,3.65,1.4,5.04,0,1.39-1.39,1.39-3.65,0-5.04-2.04-2.04-4.29-3.95-6.67-5.65-2.43-1.74-5.11-3.23-7.99-4.45-2.86-1.21-6.06-2.17-9.5-2.85-3.44-.68-7.27-1.02-11.4-1.02-6.92,0-13.34,1.24-19.11,3.7-5.76,2.45-10.78,5.86-14.92,10.13-4.13,4.26-7.4,9.27-9.72,14.89-2.33,5.64-3.5,11.75-3.5,18.41s1.17,12.54,3.5,18.22c2.32,5.68,5.6,10.68,9.75,14.86,4.16,4.19,9.13,7.53,14.78,9.92,5.69,2.41,11.92,3.64,18.51,3.64,4.29,0,8.24-.37,11.73-1.09,3.55-.74,6.86-1.83,9.86-3.27,2.97-1.42,5.75-3.16,8.27-5.14,2.46-1.95,4.84-4.16,7.1-6.59,1.3-1.4,1.27-3.58-.08-4.94Z"/>
        <polygon class="cls-1" points="42.94 58.62 37.41 58.62 37.41 66.76 33.34 66.76 33.34 58.62 27.81 58.62 27.81 66.76 22.77 66.76 22.77 58.62 17.23 58.62 17.23 66.76 17.23 76.3 17.23 85.01 21.18 85.01 21.18 106.67 39.32 106.67 39.32 97.08 32.78 97.08 32.78 89.98 39.32 89.98 39.32 85.01 42.97 85.01 42.97 66.76 42.94 66.76 42.94 58.62"/>
        <path class="cls-1" d="M123.3,93.69h18.14v-8.68h3.64v-18.25h-.03v-8.14h-5.53v8.14h-4.06v-8.14h-5.53v8.14h-5.05v-8.14h-5.53v26.39h3.95v8.68ZM134.85,72.41h6.75v6.75h-6.75v-6.75Z"/>
      </g>
    </g>
  </g>
</svg>