<?xml version="1.0" encoding="UTF-8"?>
<svg id="_圖層_2" data-name="圖層 2" xmlns="http://www.w3.org/2000/svg" viewBox="0 0 1319.13 782.63">
  <defs>
    <style>
      .cls-1 {
        fill: #025c4c;
      }

      .cls-2 {
        fill: #eac034;
      }
    </style>
  </defs>
  <g id="_圖層_1-2" data-name="圖層 1">
    <g>
      <path class="cls-1" d="M1006.18,763.76c-.49,4.88,1.2,16.64-4.96,18.57-3.23,1.02-7.33-.65-8.01-4.1,4.51-49.56,8.92-99.04,6.01-148.88-2.51-43.01-9.18-130.07-29.22-166.59-16.75-30.52-52.94-45.09-83.23-58.66-6.06,17.6-10.7,36.61-18.31,53.65-3.03,6.78-6.65,11.51-14.91,8.52l-41.83-23.22c-3.94-.23-14.02,13.29-17.94,15.97-7.3,26.63-15.49,56.06-19.31,83.6-5.95,42.9.25,87.64.91,130.7.52,34.35-.84,68.59-2.1,102.88-1.35,8.27-12.52,7.73-12.86-1.02-.33-8.46,1.8-20.18,1.97-28.85.88-45.6-.25-91.44-1-136.95-.41-25.06-2.6-49.5,1.25-74.6,3.74-24.39,11.74-48.7,15.69-73.13-.24-2.5-7.51-14.82-9.69-15.45-9.52,2.01-30.3,13.73-28.06-5.42l5.27-9.71c-19.04,8.02-28.44,26.52-36.65,44.29-8.61,18.64-15.35,38.26-23.95,56.98-9.07,19.76-19.23,39.13-29.83,58.09,7.14,1.49,26.88,15.88,26.9,22.97,0,3.14-3.65,6.11-6.6,6.24-4.76.21-15.09-16.52-24.81-16.82-36.27,5.64-72.82,9.37-109.43,12.09,3.72,17.52,1.76,34.45-1.01,51.95,4.46.21,9.03-.32,13.49,0,32.53,2.36,107.79,11.57,134.36-6.57,7.37-5.03,21.33-23.37,22.81-32.14,2.54-15.03-4.16-41.99-4.8-58.66-.72-18.5,1.55-39.44,5.5-57.52,1.36-6.2,7.78-38.95,18.1-26.02,3.52,4.41-.87,9.89-1.99,14.62-3.86,16.39-9.27,37.45-9.63,53.86-.54,24.83,5.81,49.3,7.08,73.93,1.63,31.47-.63,67.64-4.16,98.82-1.3,11.47-4.31,41.26-8.36,50.58-2.33,5.37-9.36,5.18-11.06.05s3.45-24.67,4.41-31.67c4.22-30.86,6.61-62.12,7.13-93.27-10.18,11.6-19.96,21.52-35.19,26.26-20.7,6.44-56.15,5.53-78.27,4.75-18.56-.65-48.2-1.72-65.85-5.1-3.44-.66-5.57-3.51-9.01-3.98-4.68-.64-10.67.55-15.54.06,3.35,9.43-3.71,16.75-12.73,18.74-1.72.38-5.54-.11-6.13.38-.27.23-1.36,4.42-3.15,6.33-6.18,6.62-14.51,3.14-16.84,4.64-.34.22-1.44,4.8-2.28,6.21-3.75,6.28-10.42,6.55-17.1,5.4-4-.69-11.98-7-14.09-6.6-1.32.25-6.99,7.1-9.3,8.67-7.38,5-16.36,4.33-22.29-2.36-1.04-1.17-2.95-5.11-3.22-5.27-1.63-.93-6.77.42-10.72-1.78-3.61-2.01-5.78-7.98-6.23-8.25-3.53-2.16-7.47.93-13.84-6.64-1.33-1.58-1.33-4.09-2.98-4.5,1.8,28.89,5.04,57.72,8.99,86.43l-1.76,4.46-361.77,1.27c-4.08-1.93-3.39-7.99-3.27-11.79.89-29.15,5.53-59.6,7.02-88.88,2.25-44.03-2.21-87.9-4.03-131.82-.42-10.21,1.12-22.17.05-32.02-1.17-10.79-7.3-25.73-9.54-37.42-7.26-37.96-8.52-82.51,22.51-110.44,24.74-22.27,60.34-30.79,82.96-53.94,5.83-5.96,16.29-15,23.02-19.94,1.59-1.17,4.51-1.15,4.98-2.24.95-2.22,2.83-17.58,2.98-20.79.41-9.21-10.41-22.27-15.16-30.78-18.69-33.53-42.34-83.76-13.8-119.03,8.16-10.09,14.66-9.25,21.68-14.8,2.49-1.97,7.35-10.35,10.77-13.65,27.47-26.51,73.49-23.42,108.47-16.55,8.56,1.68,20.83,6.68,28.73,7.32,6.53.53,10.89-4.51,17.71.2,11.95,8.26,12.41,28.01,5.69,39.65-1.2,2.08-6.02,7.01-6,8.6.03,2.33,3.27,8.08,4.09,10.91,6.25,21.61,7.17,39.72,3.42,61.93-.65,3.85-3.69,11.26-3.59,14.32s6.1,9.43,7.2,13.62c1.24,4.73,1.48,9.24-1.32,13.31-1.56,2.26-6.31,5.04-6.97,6.27-1.46,2.72-2.46,17.33-3.51,22.21-2.02,9.42-6.29,23.68-11.08,31.88-10.73,18.36-31.54,23.43-51.39,18.07,2.96,3.02,5.68,9.17,9.07,11.4,9.29,6.1,26.23,11.16,36.9,16.56,45.98,23.28,49.75,41.81,58.69,90.68.74,4.02,3.24,28.15,4.37,29.1.75.64,5.34-.19,6.9.11.04-53.6-.07-107.25,0-160.85.05-41.58-.47-83.39.52-124.86.56-.61,2.7-3.02,2.98-3.02h68.46v-95.41c0-2,6.61-3.05,8.98-1.98,4.53,2.06,3.62,10.05,4.02,10.47,2.17,2.25,57.24-2.81,62.53.93,1.57,1.11,2.23,3.68,2.45,5.55,1.02,8.82,1.2,36.44.03,45.03-.3,2.16-2.53,5.45-4.55,5.45h-61.46v29.97h119.42c1.21,0,5.25,3.48,4.55,5.45-.05,67.12-.11,134.25-.05,201.35.02,27.29-.01,54.63,0,81.93,8.65.09,17.34-.14,25.99,0,4.1.06,16.03-.87,18.56.93,4.45,3.17,2.35,12.06-3.07,12.06h-254.33l13,106.9c2.3,1.79,46.45-20.55,53.74-22.7,16.99-5,40-2.72,55.09,7.3,11.94,7.93,23.54,16.57,36.34,23.44,5.34,2.86,16.36,5.66,23.01,3.74,1.85-.54,2.76-2.98,6.28-3.72,14.59-3.07,36.18-2.43,51.89-4.07,18.43-1.93,36.9-4.62,55.24-7.21,13.25-24.61,25.81-49.56,37.38-75.02,1.24-2.73,1.87-6.56,2.83-8.66,11.48-25.21,25.88-66.71,49.67-81.72,8.06-5.09,23.22-8.78,29.21-13.75,3.79-3.14,8.1-11.13,12.02-14.96,2.05-2.01,9.37-6.37,9.9-8.15,2.63-8.91-6.91-5.76-12.22-6.42-28.59-3.54-43.85-39.82-47.6-64.81-3.56-23.76,5.93-32.48,7.98-53.46.41-4.21-.4-8.76.03-12.96.56-5.61,4.06-15.99,4.03-20.01-.03-3.23-3.45-8.15-3.96-12.06-5.05-38.57,38.78-73.74,74.33-76.38,31.98-2.37,80.61,13.99,102.47,38,33.7,37.02,21.73,77.21,25,121.37,1.94,26.27,21.43,51.77,6.78,77.74-6.04,10.72-12.96,15.16-23.51,20.48-.65.33-2.03.16-1.27,1.69.62,1.25,20.83,11.54,24.29,13.69,42.84,26.68,51.73,52.18,60.36,100.5,14.94,83.7,15.78,163.66,7.29,247.96ZM488.52,111.39h-52.97v29.47c0,.11,1.39,1.5,1.5,1.5h51.47v-30.97ZM286.61,138.4c-25.64,5.13-51.8,5.38-77.91,4.97,4.72,20.28-7.06,36.77-16.16,53.27-3.03,5.49-6.48,19.04-13.42,19.66-10.44.94-10.35-23.13-26.65-19.77-18.45,3.81-14.62,46.65,3.99,50.5,5.98,1.23,19.73-3.02,19.32,5.75-.45,9.73-19.26,5.72-20.16,7.05l-5.82,38.05.43,3.31,59.15,47.86c2.88.96,6.66-7.51,7.09-9.6.73-3.56.69-16.74-.67-19.86-1.85-4.22-22.92-14.08-27.73-19.73-3.69-4.34-2.81-10.66,3.12-10.72,3.68-.04,20.15,13,25.2,15.87,14.66,8.33,32.62,15.36,48.95,7.37,16.45-8.04,20.87-39.83,23.3-56.12-6.73,1.09-13.87-2.07-10.32-9.8,1.83-3.97,20.15.27,20.3-6.67.08-3.91-17.65-21.61-17.69-31.19-.03-7.72,9.84-6.07,12.7-.31-.34-2.79,2.89-18.16,2.01-18.98-.37-.34-7.04,1.11-8.01-4.55-1.47-8.61,7.39-6.86,8.01-7.44,2.41-2.26-7.67-33.81-9.04-38.93ZM742.35,248.26v24.48c0,5.43-6.33,16.54-7.7,23.27-4.11,20.25,8.11,65.09,30.46,71.85,18.49,5.59,39.25-5.65,54.92-14.54,5.19-.67,8.61,1.31,6.82,6.88-2.41,7.5-24.78,15.01-31.61,18.6,3.94,21.84-1.9,42.84-4.92,64.27,11.72-11.06,24.77-20.89,36.49-31.94,5.63-5.31,29.27-27.92,29.18-34.31-.07-4.85-3.28-14.07-3.71-20.18-.39-5.6-.18-12.32-.05-18.01.06-2.65,1.5-5.46,1.1-7.95-.44-2.71-6.84-4.08-4.85-10.78,1.77-5.98,12.35-3.02,17.22-3.78,7.48-1.16,16.13-14.78,17.31-21.65,2.61-15.15-7.03-28.85-22.44-19.44-4.46,2.72-10.37,13.25-16.04,7.92-1.61-1.51-4.89-14.39-7.09-18.38-12.74-23.14-48.25-25.6-60.31-54.6-.92-2.22-3.3-12.28-3.84-12.66-3.27-2.3-12.96,10.12-14.79,12.66-5.93,8.23-10.36,17.44-14.16,26.8,6.95-1.23,17.39,6.78,8.9,11.89-4.42,2.66-6.7,1.48-10.91-.41ZM546.48,198.31h-181.88v275.73h47.97v-65.44c0-1.24,2.71-4.15,4.44-3.56,24.34,1.95,52.16-2.38,76.07,0,1.85.18,6.43,1.64,6.43,3.56v65.44h46.97V198.31ZM175.73,387.12l26.95-27.47-64.42-50.45c-2.94.74.85,7.57,1.62,9.35,10.13,23.3,26.17,44.94,35.85,68.57ZM107.75,339.15c.14-.14.39-3.7-.48-3.97l-6.5,4.98c1.24-.69,6.73-.77,6.98-1.01ZM241.67,378.13c-2.58-12.74-4.42-28.81-12.97-38.96-1,7.02-5.21,12.68-8.82,18.49l21.79,20.47ZM857.27,452.06c2.7-10.73,7.85-20.73,11.27-31.2,4.2-12.85,11.17-25.53-2.77-34.73-11.24,18.15-28.34,31.72-43.43,46.52-.37,1.42.9,1.61,1.61,2.28,2.55,2.4,12.03,7.37,15.67,9.31,2.42,1.3,16.52,8.81,17.65,7.82ZM201.7,441.07v-42.46c0-.69-6.81-11.46-7.49-11.47-2.08,2.89-11.23,9.63-11.52,12.51l19.02,41.42ZM247.66,461.05c-.65-14.95.89-30.63.05-45.49-.18-3.13-.66-10.08-1.25-12.74-.72-3.27-9.94-11.81-12.77-14.69-2.87,17.55,6.38,34.85,8.26,52.18l5.72,20.75ZM779.32,438.07l4.99-34.96c-10.18,9.87-19.01,20.73-26.97,32.47,4.61.48,8.69-5.2,13.43-4.53,4.06.57,4.7,6.59,8.55,7.02ZM449.54,417.1h-23.98v56.94h23.98v-56.94ZM486.52,417.1h-23.98v56.94h23.98v-56.94ZM456.53,584.94c-6.12-1.88-13.07-3.67-19.49-4-26.61-1.37-47.52,18.75-72.47,24.44-1.71,6.67-1.17,14.78-2.1,21.88-.99,7.61-2.68,16.1-4.36,23.61-.39,1.74-2.78,7.64-2.51,7.97.15.19,4.28,1.77,4.52,1.75,1.23-.09,7.45-7.94,13.93-7.78,7.23.18,9.2,7.18,12.23,7.89,2.45.57,7.5-1.83,12.34-.39s7.22,6.97,9.22,8.26,7.73.94,11.23,3.26c6.1,4.04,4.58,11.64,6.46,13.52,1.24,1.24,6.27,3.61,8.49,5.5,5.95,5.1,10.49,12.62,19.11,13.86,4.51.65,6.98.48,5.94-4.86l-27-24.03c-3.2-3.84-1.56-10.91,3.98-10.9,5.49,0,24.7,23.21,33.24,26.65,5.83,2.35,11.76,2.25,8.29-5.29l-30.08-29.86c-3.97-8.22,3.11-9.18,9.42-6.42,8.89,6.09,23.38,25.77,32.07,29.87,6.23,2.94,10,1.03,8.05-6.05-1.62-5.88-26.58-31.19-32.49-36.45-4.06-3.62-16.34-14.49-21.23-14.26-7.81.36-13.52,7.05-20.07,9.97-9.91,4.42-18.86,5.64-27.6-1.77-12.68-10.75-2.26-19.86,6.9-27.91s18.47-12.43,29.94-15.02l24.03-3.43ZM528.99,617.9c-2.35-.76-14.3,0-17.99,0-13.66,0-28.38-22.19-55.01-21.02-19.86.87-40.42,8.02-53.41,23.52,11.29,10.82,23.45-6.93,34.91-9.04,5.13-.94,9.29-.66,14.21.87,12.82,4,39.94,34.12,49.82,45.15.79.88.68,2.49,1.7,3.52,2.84,2.89,22.56,2.82,24.35.31,3.48-4.89,6-41.83,1.41-43.32ZM339.47,666.71c2.37-1.52,10.82-40.91,11.17-46.27.2-2.95.82-15.58-1.68-16.39-3-.97-10.58,0-14.35-1.14.82,21.34-4.57,42.25-8.99,62.94,3.23-1.01,11.55,2.33,13.85.86ZM374.1,665.13c-2.74-.26-13.11,8.34-8.57,12.28,4.71,3.41,15.06-11.68,8.57-12.28ZM380.87,681.09c-1.58,3.75.31,9.81,5,8.61,1.06-.27,11.63-11.64,12.25-12.88.79-1.58-1.14-4.8-2.55-5.5-3.05-1.52-5.78,1.2-8,3.02-.84.69-6.52,6.31-6.7,6.75ZM406.92,683.19c-1.05.94-9.55,9.99-9.85,10.65-.94,2.02-.55,4.51,1.52,5.54,3.67,1.83,19.38-12.5,13.53-17.64-1.81-1.59-3.72.13-5.2,1.45ZM415.7,710.68c4.24,2.68,15.8-9.15,7.87-13.4-3.06-1.64-10.01,6.26-9.77,8.87.04.44,1.7,4.4,1.91,4.53Z"/>
      <path class="cls-2" d="M1056.15,185.32c-4.63,15.99,16.04,14.89,25.98,10.99,59.72,25.07,114.06,70.56,146.08,127.2,31.4,55.55,41.74,115.51,37.79,178.99-.33,5.29-2.25,11.07-1.99,16.49-3.21,5.06-7.77,19.96-14.54,20.89-3.18.44-6.62-.44-9.7.33-5.97,1.49-13.19,17.6-18.7,22.27-6.79,5.75-15.76,2.77-20.76,13.21-.88,1.83-1.12,6.02-2.2,6.83-2.61,1.95-8.17-3.12-10.61-3.56-6.28-1.13-12.27,3.73-14.63,9.27-3.63,8.5-4.96,31.24.66,38.7,2.46,3.26,9.84,6.06,10.38,7.61,2.19,6.39-2.98,13.91,3.17,20.81,5.03,5.63,8.66,3.97,14.98,4.51-8.35,12.7-20.96,21.9-32.98,30.97-1.17-.58-11.84-4-12.49-4h-15.49l3.43-30.04c1.46-4.56,10.62-4.17,9.53-12.33-.33-2.47-4.65-12.08-6.59-13.46-2.82-2-6.07-1.36-8.68-2.13-1.28-.38-.04-2.38-1.68-1.98.59,3.84-2.39.74-2.92,1.06-.61.37-4,8.1-7.51,7-.91-3.98-8.51-9.14-9.12-11.97-.34-1.57,2.53-5.68,2.61-8.62.09-3.47-2.14-5.2-2.05-8.44,4.21,1.29,12.21-3.09,13.42-7.03,3.95-12.84-7.52-18.17-9.18-28.68-1.41-8.92.74-16.76-2.76-26.21-3.16-8.51-17.19-20.47-25.14-24.82-2.59-1.42-5.7-1.67-8.03-2.96-6.37-3.54-8.45-19.08-12.1-25.86-5.78-10.73-12.25-4.83-11.15-20.79.73-10.64,3.65-11.67,8.36-19.6.83-1.39,2.35-6.63,2.63-6.88,1.6-1.44,2.83,2.88,4.59,3.89,5.66,3.23,13.95-1.26,20.28.21,2.72,10.88,4.59,24.68,17.85,26.61,2.8.41,10.67-.43,11.79,1.19,1.69,4.96-1.36,9.61-1.6,14.53-.37,7.41,2.44,17.07,11.49,16.46,7.33-.49,21.39-18.09,28.2-22.76,12.71-8.71,26.08-7.84,34.18-24.77,6.55-13.68,3.08-55.22-4.05-68.63-9.31-17.49-37.47-25.36-38.81-48.16-.83-14.05,16.81-11.96,23.45-22.49,7.08-11.21-8.56-14.09-14.92-18.96-4.58-3.51-9.44-9.56-13.21-14.02-4.34-2.6-13.81,1.57-18.48,3.37-5.93,2.29-15.56,8.5-21.55,9.45-6.61,1.04-21.12-4.37-24.96,3.99-1.56,3.39-1.92,7.59-1.28,11.22-7-.48-5.04-4.77-7.49-9.99-4.67-9.91-10.88-6.68-14.94-11.04-3.38-3.63-3.93-11.94-7.08-15.9-2.66-3.35-8.79-5.99-12.43-10.55-7.38-9.28-11.78-35.37-28.05-23.99-6.98,4.88-18.2,24.81-22.96,27-7.37,3.38-10.67-7.1-20.67-1.68-12.93,7-4.43,24.99-6.74,36.22s-15.38,14.2-10.04,27.9c3.37,8.64,10.91,9.62,16.4,14.57,3.8,3.42,8.44,19.71,8.95,25.02,1.34,13.98-8.44,29.97,12.62,30.14,11.57.09,23.61-5.96,30.98-14.77.27-.12,2.7,4.27,3,4.99,3.01,7.14,11.01,48.77,11.53,57.41.39,6.56-.1,14.29-1.31,20.75-2.07,11-12.1,30.08-.49,39,3.36,2.58,9.4,3.25,11.25,4.74,1.09.88,15.33,20.66,16.32,22.64,4.85,9.65,6.16,23.09,10.41,33.55,1.36,3.34,5.07,8.05,5.74,10.25,1.29,4.19-6.86-3.12-7.63-3.87-5.15-4.97-11.66-11.7-16.31-17.16-5.39-6.32-8.56-14.8-16.73-18.24-5.15-2.17-9.04-1.78-14.13-2.86-6-1.26-13.07-6.13-18,1.27-9.17,13.79,9.23,26.1,16.27,35.42,3.05,4.03,5.85,10.73,9.04,13.93s8.69,3.51,10.42,6.56c1.97,3.46,1.8,10.46,4.55,15.43,2.21,4,5.95,6.05,8.38,9.6,5.19,7.6,6.46,17.03,10.28,24.69,2.24,4.5,25.74,31.18,30.37,35.57,7.11,6.75,20.61,13.03,30.47,13-1.28,4.49-2,10.46,1.14,14.34,1.78,2.21,6.75,3.41,9.86,4.63-.79,2.83-5.71,5.82-8.09,7.4-13.42,8.95-29.28,16.59-44.21,22.74-26.31,10.84-53.17,18.09-81.62,20.81,8.49-84.3,7.65-164.27-7.29-247.96-8.62-48.33-17.52-73.82-60.36-100.5-3.46-2.16-23.66-12.44-24.29-13.69-.76-1.53.61-1.36,1.27-1.69,10.56-5.32,17.47-9.76,23.51-20.48,14.64-25.96-4.84-51.46-6.78-77.74-3.27-44.15,8.71-84.35-25-121.37,48.51-15.17,101.05-10.29,148.9,5ZM1159.8,641.09c-9.82,2.22-3.2,23.37,10.02,18.01,9.82-3.98.6-17.33-5.32-18.18-1.57-.23-3.16-.18-4.7.17Z"/>
      <path class="cls-1" d="M1140.09,712.81c-3.11-1.23-8.07-2.43-9.86-4.63-3.14-3.89-2.42-9.86-1.14-14.34-9.86.03-23.36-6.25-30.47-13-4.63-4.4-28.13-31.08-30.37-35.57-3.81-7.66-5.09-17.1-10.28-24.69-2.43-3.56-6.17-5.6-8.38-9.6-2.75-4.97-2.58-11.97-4.55-15.43-1.74-3.05-7.22-3.35-10.42-6.56s-6-9.9-9.04-13.93c-7.04-9.32-25.44-21.64-16.27-35.42,4.92-7.41,12-2.54,18-1.27,5.09,1.07,8.98.69,14.13,2.86,8.17,3.44,11.35,11.91,16.73,18.24,4.65,5.46,11.16,12.19,16.31,17.16.77.75,8.92,8.06,7.63,3.87-.67-2.19-4.39-6.91-5.74-10.25-4.25-10.46-5.56-23.9-10.41-33.55-1-1.98-15.24-21.77-16.32-22.64-1.85-1.49-7.89-2.16-11.25-4.74-11.61-8.92-1.58-28,.49-39,1.22-6.45,1.7-14.19,1.31-20.75-.52-8.64-8.52-50.26-11.53-57.41-.3-.72-2.73-5.11-3-4.99-7.38,8.81-19.41,14.87-30.98,14.77-21.06-.17-11.28-16.16-12.62-30.14-.51-5.31-5.15-21.6-8.95-25.02-5.49-4.95-13.03-5.94-16.4-14.57-5.34-13.7,7.63-16.18,10.04-27.9s-6.19-29.22,6.74-36.22c10-5.41,13.29,5.07,20.67,1.68,4.76-2.18,15.98-22.12,22.96-27,16.27-11.37,20.66,14.72,28.05,23.99,3.64,4.57,9.77,7.21,12.43,10.55,3.15,3.97,3.7,12.27,7.08,15.9,4.06,4.36,10.28,1.12,14.94,11.04,2.45,5.21.49,9.51,7.49,9.99-.64-3.63-.27-7.83,1.28-11.22,3.84-8.36,18.36-2.95,24.96-3.99,5.98-.94,15.61-7.15,21.55-9.45,4.67-1.8,14.14-5.96,18.48-3.37,3.77,4.46,8.63,10.51,13.21,14.02,6.36,4.87,22,7.75,14.92,18.96-6.64,10.53-24.28,8.45-23.45,22.49,1.34,22.8,29.5,30.67,38.81,48.16,7.14,13.41,10.6,54.95,4.05,68.63-8.11,16.93-21.48,16.06-34.18,24.77-6.81,4.67-20.87,22.27-28.2,22.76-9.05.61-11.86-9.06-11.49-16.46.25-4.92,3.3-9.56,1.6-14.53-1.13-1.62-8.99-.79-11.79-1.19-13.26-1.93-15.13-15.73-17.85-26.61-6.33-1.47-14.62,3.02-20.28-.21-1.76-1-2.98-5.33-4.59-3.89-.27.25-1.8,5.49-2.63,6.88-4.71,7.93-7.63,8.96-8.36,19.6-1.1,15.96,5.37,10.06,11.15,20.79,3.65,6.78,5.74,22.32,12.1,25.86,2.33,1.29,5.44,1.54,8.03,2.96,7.95,4.35,21.98,16.31,25.14,24.82,3.51,9.45,1.35,17.29,2.76,26.21,1.66,10.51,13.13,15.85,9.18,28.68-1.21,3.94-9.21,8.32-13.42,7.03-.09,3.24,2.15,4.98,2.05,8.44-.08,2.95-2.95,7.05-2.61,8.62.61,2.83,8.21,7.99,9.12,11.97,3.51,1.1,6.9-6.63,7.51-7,.53-.32,3.51,2.78,2.92-1.06,1.64-.41.41,1.6,1.68,1.98,2.61.77,5.86.13,8.68,2.13,1.94,1.38,6.26,10.99,6.59,13.46,1.09,8.17-8.07,7.77-9.53,12.33l-3.43,30.04h15.49c.66,0,11.32,3.42,12.49,4,.33.16,1.39,2.48,3.24,3.24,11.96,4.94,27.48-2.84,39.4,2.57,2.63,1.2,5.33,4.34,8.03,4.95,5.73,1.31,10.25-1.85,16.2-.2,8.38,2.33,4.38,8.35,6.52,11.46,1.44,2.1,16.61,1.78,15.54,12.34-1.32,12.98-26.06,6.05-33.49,5.6-12.69-.77-21.38.95-34.24-2.73-3.41-.98-7.55-3.73-10.77-4.21-5.23-.79-10.97.63-16.48-.5-4.37-.9-16.72-8.09-22.93-10.55ZM1071.02,318.08c1.24-1.74-1.3-7.89-2.84-9.42-1.99-1.97-5.71-2.22-8.36-3.63-9.51-5.06-7.52-10.85-11.82-18.16-2.25-3.83-6.71-5.74-9.39-8.6-6.55-7-10.07-17.85-14.95-25.99-11.07,8.19-14.98,29.64-30.98,30.03-8.13.2-15.02-7.99-14.54,3.44.27,6.44,3.25,13.13,1.98,19.89.02,5.4-10.58,15.49-10.93,19.11-.63,6.37,11.95,11.46,15.43,16.49,8.33,12.06,11.34,33.64,8.56,47.88,6.12.47,16.07-1.7,20.91-5.56,2.99-2.39,4.52-10.97,8.82-12.24,6.56-1.93,11.73,3.98,14.42,9.13,5.77,11.05,15.54,63.15,14.85,76.15-.23,4.32-1.66,9.08-2.03,13.44,3.08.49,1.59-.8,1.96-2.5,1.56-7.18,6.31-16.04,5.95-22.81-.77-14.7-12.14-27.68-9.83-44.03.43-3.02,2.93-6.04,2.52-8.62-1.2-7.56-15.01-17.2-16.52-28.52-3.15-23.67,13.68-31.94,30.75-43.01,1.56-1.01,5.83-2.21,6.02-2.47ZM1168.07,314.21c-3.68-1.38-8.81-3.31-11.92-5.57-2.69-1.95-8.01-10.13-8.66-10.29-1.45-.35-26.93,10.84-27.16,12.31,1.01,10.75,17.01,11.77,20.65,18.13,4.63,8.09-5.22,16.34-3.42,20.34.89,1.97,9.72,9.39,12.04,12.01,6.75,7.64,26.16,29.63,27.38,38.56.75,5.47.92,36.08-.37,40.42s-7.06,8.89-10.86,11.12c-1.84,1.08-6.24,1.81-7.42,3.07-1.03,1.11-1.32,4.31-2.4,6.1-3.38,5.59-15.15,7.53-16.42,9.61-.47.77,2.57,5.71,2.5,8.41-.07,2.52-3.96,12.23-2.91,13.59,6.41-2.78,9.53-9.48,14.46-14.01,12.38-11.37,36.69-12.72,39.41-32.53,1.59-11.58-1.01-37.29-5.73-48.04-4.58-10.43-15.91-16.44-23.69-24.28-11.88-11.98-23.44-28.94-12.3-45.31,4.88-7.17,9.34-7.4,15.54-11.41.97-.63,1.79.11,1.28-2.22ZM1108.92,313.39c-.37-.24-8.45-1.45-8.8-1.18,4.56,12.36-8.5,15.82-17.98,10.98-2.57,10.01,7.61,14.04,8.73,22.75.7,5.39-1.6,10.69-.74,16.21,3.82-2.71,8.96.24,12.26-.2,6.57-.87,9.3-8.25,19.6-3.2,12.51,6.15,16.05,19.28,21.9,30.06,3.4,6.26,7.64,6.84,7.25,15.81-.15,3.36-3.44,8.24.19,8.27,1.29.01,11.99-2.63,12.76-3.27,1.53-1.28,1.24-6.87.91-8.95-.68-4.29-18.34-26.13-22.4-30.55-11.11-12.07-25.71-15.98-11.62-34.47-4.62-3.83-11.19-4.98-15.41-9.44-2.58-2.72-6.05-12.44-6.66-12.83ZM1099.46,416.44c2.92-3.36,10.8-8.7,15.23-9.29,6.92-.93,26.01,8.42,23.97-6.09-5.81-6.9-8.42-16.13-13.73-23.25-9.89-13.25-9.71-5.1-20.4-3.76-4.3.54-8.49-1.39-11.67-.75-4,.81-4.29,5.27-10.28,2.91-10.57-4.16-1.62-19.4-3.66-28.34-.91-4-9.72-10.26-9.27-16.68-11.19,7.54-24.75,12.53-24.32,28.5.22,7.98,15.59,19.73,17.38,28.39,1.44,6.98-3.53,12.74-3.55,19.53,0,2.97,2.86,17.52,5.66,18.38,3.55,1.09,10.36-3.35,17.04.87,4.36,2.75,4.75,8.7,5.28,9.22.25.25,6.72-.77,6.98-1.01.37-.35-.13-7.59.44-10.05.49-2.1,3.45-6.91,4.91-8.58ZM1166.07,421.09c-7.05,1.85-15.61,5.42-22.73,2.23-1.76-.78-2.62-2.9-4.81-3.26-2.84-.46-8.77,1.26-12.98,1.05-6.18-.3-10.12-3.93-15.34.58-2.4,2.07-3.84,4.67-4.16,7.81-1.03,9.98,3.49,7.14,5.57,13.54,2.32,7.14-.37,17.5,9.08,18.89,5.82.86,16.63-2.96,21.75-6.04,3.81-2.3,4.47-6.9,8.14-9.84,2.51-2.01,15.49-7.08,15.49-9.49v-15.48ZM1051.14,479.04c-5.4,1.02-5.61,14.29-5.04,18.53.92,6.8,4.2,2.81,7.32,3.58,2.86.71,16.17,21.36,19.74,25.31,5.87,6.5,12.83,10.46,21.95,9.52-1.31-6.38-9.83-6.37-14.34-9.13-11.97-7.32-11.36-22.99-18.38-31.58-4.25-5.2-12.7-6.9-11.25-16.23ZM1105.1,542.98c-5.6,2.79-8.78,4.57-15.37,3.89-1.68-.17-10.24-3.73-9.5-.51,1.87,8.12,10.64,25.52,16.36,31.61,3.44,3.67,15.56,12.69,19.98,15,1.6.84,2.64,1.27,4.53.96-4.14-7.43-10.11-14.68-10.98-23.48-.98-9.87.9-18.12-5.02-27.46ZM1096.46,605.58c-6.57-6.57-4.08-4.03-12.01-8.47-11.66-6.53-25.94-18.13-34.81-28.14-3.01-3.4-8.87-13.53-11.55-15.42-3.22-2.27-13.64-2.9-17.91-3.56-2.43,2.31,14,16.03,15.96,18.5,2.44,3.07,5.6,10.58,7.32,12.16s6.67,2.79,9.03,4.46c6.62,4.7,4,10.65,6.46,17.52s11.76,14.43,15.74,22.23c3.52,6.91,4.98,17.03,9.02,22.96,4.26,6.25,31.47,31.45,38.13,32.81,2.72.55,5.54.13,8.28.23.15-8.57,1.19-17.24,3.87-25.38-4.01-3.53-9.52-4.65-13.41-8.55-2.74-2.75-4.1-6.39-6.48-9.51-4.06-5.32-8.32-5.74-8.59-14.17-.08-2.66,1.85-8.56,1.15-10.3-1.31-3.21-7.92-5.09-10.18-7.36ZM1228.94,712.91c-.6-.52-10.53.15-13.16-.33-4.5-.82-7.31-5.05-11.28-5.71-8.13-1.35-18.93.8-27.67-.31-11.61-1.47-22.42-12.46-34.72-6.22-.84,1.75,1.71,1.8,2.73,2.2,7,2.78,16.92,8.58,23.75,9.26,4.5.45,9.23-.51,13.74.25,6.73,1.14,13.13,7.13,21.37,7.66,3.95.25,7-1.09,10.85-.97,6.24.18,13.38,1.79,19.47,3.06-.17-1.68-2.28-1.22-3.46-3.02-1-1.51-1.36-5.63-1.63-5.87Z"/>
      <path class="cls-1" d="M1056.15,185.32c1.81-6.24,7.1-15.95,9.74-22.73,2.97-7.63,6.01-15.34,8.24-23.23-23.65,7.69-50.55,10.97-75.43,8.98-12.19-.98-45.97-7.01-57.03-10.92-14.55-5.14-14.35-23.9,2.56-24.04l-19.78-36.7c-2.25-9.54,9.86-12.88,17.24-13.28,9.16-.49,10.83,1.57,17.84,6.21,11.83,7.82,22.03,18.4,34.21,25.82l58.41-14.03-47.77-59.63c-14.07-27.54,17.77-24.17,33.8-15.81l80.58,57.19c25.23-4.58,52.58-13.92,77.92-16.59,14.78-1.56,24.89.01,37.27,8.45,2.93,2,13.4,10.44,14.92,13.05,9.72,16.65-14.38,33.2-28.05,37.6-17.31,5.57-42.54,10.73-60.71,14.24-3.06.59-15.14,1.27-15.83,1.67-.91.53-10.15,14.66-12.22,17.25-6.49,8.11-13.41,15.93-19.92,24.05-7.78,9.71-18.68,28.97-30.02,33.43-9.95,3.9-30.61,5-25.98-10.99ZM1102.12,68.43c-8.24-6.96-17-13.37-25.67-19.79-12.93-9.57-43.24-34-58.27-34.69-1.41-.06-1.74-.88-2.98,1.03l50.95,62,35.97-8.57ZM1212.04,61.43c-.86-2.2-3.04-2.79-5.19-2.75-10.94.22-35.01,6.55-46.96,9.06-22.66,4.77-44.91,11.1-67.35,16.59-32.26,7.89-64.46,15.93-96.66,24.03-1.41.58-1.41,6.69-3.96,7.32l-43.7,10.67c24.41,3.29,46.5,10.18,71.44,8.99,10.32-.49,23.33-2.42,33.51-4.46,4.2-.84,24.29-5.61,26.44-7.53.6-.53,2.06-3.5,1.51-3.97-7.99,2.7-16.64-9.37-9.98-14.48,5.69-4.37,29.26-6.19,36.96-10.5,2.72,11.08-5.44,11.25-9.67,16.29-2.56,3.06-11.56,33.65-14.02,40.43-4,11-8.52,22-13.26,32.71-1.05,3.71,8.41-1.11,9.31-1.69,6.08-3.92,15.47-19.69,20.69-26.27,12.81-16.14,26.17-31.84,38.98-47.97,2.89.64,4.12-2.4,4.39-2.39,4.28.16,5.72,3.79,6.25,3.92,1.2.3,5.44-.53,6.85-.97,1.61-.51,1.47-1.8,2.21-2,16.89-4.45,65.23-11.43,74.61-25.12,1.27-1.85,3.23-4.4,1.66-6.47-6.69-8.76-27.26,6.31-32.16.13-3.8-4.78,2.74-13.12,8.09-13.6ZM980.19,101.42c-.09-.1-1.63-.28-2.46-1-6.3-5.5-22.63-19.54-29.47-22.54-2.94-1.29-6.44-2.94-9.01.04,4.03,4.27,14.82,28.04,17.95,30.01,2.09,1.31,17-2.73,20.23-3.84.98-.34,4.36-.78,2.77-2.66Z"/>
      <path class="cls-1" d="M1264.01,519c1.74-2.73,9.88-9.9,12.97-10.54s12,1.27,14.45,3.61c3.41,3.27,4.76,10.87,8.04,13.94,5.86,5.49,21.65,2.76,19.45,16.41-1.53,9.46-15.06,9.58-15.78,10.71-.86,1.35.03,6.25-3.11,9.37-2.83,2.81-8.74,1.55-9.84,5.15-3.23,10.58,16.19,25.38,13.37,34.31-2.02,6.39-10.62,5.51-13.44,9.56-2.97,4.27-2.87,13.26-6.91,19.07-2.2,3.16-5.61,4.11-6.93,7.06-1.44,3.2-.83,7.04-1.71,10.28-3.35,12.32-19.9,30.84-33.5,22.38-2.35-1.47-5.59-6.67-7.76-7.29-2.98-.86-7.45,1.5-10.78,1.82-10.81,1.05-10.77-4.16-20.48-4.98-6.32-.53-9.95,1.13-14.98-4.51-6.15-6.9-.98-14.42-3.17-20.81-.53-1.55-7.92-4.35-10.38-7.61-5.62-7.46-4.28-30.21-.66-38.7,2.36-5.54,8.35-10.39,14.63-9.27,2.43.44,8,5.51,10.61,3.56,1.08-.81,1.32-4.99,2.2-6.83,5-10.44,13.97-7.46,20.76-13.21,5.51-4.66,12.73-20.77,18.7-22.27,3.07-.77,6.51.1,9.7-.33,6.77-.93,11.33-15.83,14.54-20.89ZM1302.99,538.99c-3.48-.43-7.95-.59-10.96-2.54-4.6-2.98-8.12-15.62-11.67-16.3-6.71-1.28-13.54,19.35-16.91,23.75-1.39,1.82-6.38,5.13-6.39,5.55-.02,1.15,5,4.95-1.11,9.93-5.31,4.33-10.52-2.85-12.42-7.42-6.15,8.16-10.37,19.33-20.12,23.85-3.17,1.47-8.8,2.03-10.82,4.17-2.8,2.96-3.41,10.28-5.54,13.93.69.53,11.88-3.78,14.49-4,9.25-.79,15.91,7.1,21.88-4.08,5.41-10.13,10.23-26.76,21.91-32.04,7.63-3.44,23.63-.1,24.57-.92.3-.26,1.08-5.17,3.07-7.41,2.87-3.22,7.61-3.11,10-6.48ZM1278,563.96c-25.18,1.4-15.69,41.34-42.43,39.96-3.88-.2-7.91-2.28-12-2.06-6.98.38-14.06,6.57-22,5.02-1.24-.24-8.61-6.55-10.06-7.92-2.75-2.61-3.95-7.54-8.44-7.04-1.4,1.19-1.3,21.01-.58,24.05,1.82,7.63,12.09,8.11,13.47,18.5.39,2.96-.8,11.68,1.02,12.96,2.28,1.6,7.06-.89,10.29-.37,4.17.67,8.81,5.68,12.25,5.89,5.18.31,9.75-3.3,16.77-1.85,9.16,1.9,10.12,15.83,21.73,3.29,8.04-8.69,3.56-15.69,6.73-23.24,1.5-3.56,6.71-4.94,8.66-8.33,4.52-7.83,2.11-20.38,14.65-24.49-4.93-10.92-14.25-21.47-10.08-34.37Z"/>
      <path class="cls-2" d="M722.36,317.19c3.74,24.99,19,61.27,47.6,64.81,5.31.66,14.85-2.49,12.22,6.42-.53,1.78-7.84,6.14-9.9,8.15-3.92,3.83-8.23,11.82-12.02,14.96-5.99,4.98-21.15,8.67-29.21,13.75-23.78,15.01-38.19,56.51-49.67,81.72-4.94-40.05-1.49-81,9.73-119.65,6.42-22.12,16.2-48.15,28.25-67.72.81-1.32.88-2.91,3-2.45Z"/>
      <path class="cls-2" d="M351.61,313.2c-.07,53.6.05,107.25,0,160.85-1.56-.3-6.14.53-6.9-.11-1.12-.95-3.63-25.08-4.37-29.1-8.94-48.87-12.71-67.4-58.69-90.68,17.16-20.99,42.32-38.47,69.95-40.96Z"/>
      <path class="cls-1" d="M922.02,778.54c-.51.91-7,3.19-8.35,3.12-4.91-.28-3.56-10.52-3.42-14.39,1.18-32.99,5.98-65.73,4.03-98.96-3.34-57-37.62-149.06-1.45-197.18,4.36-5.8,17.61-21.34,25.4-17.57,9.97,4.82-9.33,17.59-12.97,22.01-17.87,21.67-18.02,49.52-15.57,76.44,5.22,57.29,24.22,114.11,16.54,172.29l-4.22,54.24Z"/>
      <path class="cls-2" d="M559.47,392.12c3,2.62,5.58,7.46,7.51,10.97,9.17,16.65,14.93,35.41,16.51,54.42.41,4.95-1.96,13.43,1.96,16.53-8.64-.14-17.34.1-25.99,0,0-27.29.03-54.63,0-81.93Z"/>
      <path class="cls-1" d="M1159.8,641.09c1.54-.35,3.14-.4,4.7-.17,5.91.85,15.13,14.19,5.32,18.18-13.22,5.36-19.84-15.78-10.02-18.01Z"/>
      <path class="cls-1" d="M393.81,318.43c1.11-1.1,3.66-1.15,5.22-1.28,5.66-.46,32.62-.83,36.58.48,3.44,1.14,3.71,4.82,3.98,8.01.95,11.3,1.04,32.81,0,44.04-.46,5.08-2.12,7.84-7.52,8.47-4.89.57-33.02.57-36.24-.78-1.07-.45-2.07-1.3-2.76-2.24-.03-7.36-2.09-53.9.74-56.71ZM425.56,330.18h-19.99v33.97h19.99v-33.97Z"/>
      <path class="cls-1" d="M476.24,317.41c4.9-1.12,30.08-.9,35.79-.24,2.44.29,4.46.97,5.98,3.02v54.95c-1.5,2.03-3.51,2.73-5.98,3.02-4.98.58-32.95.7-36.56-.46-3.4-1.1-3.7-3.93-3.98-7.01-1-10.91-1.22-36.36.03-47.02.37-3.19,1.36-5.49,4.73-6.26ZM505.51,330.18h-20.99v33.97h20.99v-33.97Z"/>
      <path class="cls-1" d="M475.24,227.49c5.88.45,39.3-1.7,41.79.76,1.3,1.29,1.37,3.73,1.52,5.47.91,10.66,1.34,36.89,0,47.05-.25,1.94-1.13,4.06-3.07,4.92-2.11.93-34.57,1.1-38.5.57s-5.03-2.77-5.47-6.52c-1.09-9.35-1.23-37.85-.03-47.03.34-2.6,1.37-4.1,3.76-5.23ZM505.51,240.27h-20.99v32.97h20.99v-32.97Z"/>
      <path class="cls-1" d="M437.31,284.99c-1.11,1.1-3.66,1.15-5.22,1.28-5.77.47-32.46.85-36.57-.49-.94-.3-1.81-.77-2.46-1.54l-.53-52.51c.11-3.23,1.56-4.11,4.5-4.5,7.64-1.01,28.11-.75,36.08-.01,1.69.16,3.32-.08,4.54,1.46l-.33,56.3ZM425.56,240.27h-19.99v32.97h19.99v-32.97Z"/>
      <path class="cls-1" d="M278.35,276.95c-2.93,3.51-11.96,3.68-16.18,3.27-6.44-.63-23.72-6.87-21.32-15.24s14.46.45,19.8,1.78,11.58.64,15.29,1.7,4.79,5.64,2.41,8.5Z"/>
      <path class="cls-1" d="M246.41,176.57c5.31-.9,25.31-.27,22.85,8.78-2.22,8.16-14.64,3.05-21.02,4.03-5.26.81-12.27,8.09-16.05-.09-2.63-5.69,9.64-11.95,14.23-12.73Z"/>
      <path class="cls-1" d="M153.37,209.41c7.25-2.43,15.95,15.81,9.66,19.73-9.19,5.72-14.47-18.12-9.66-19.73Z"/>
      <path class="cls-1" d="M254.38,201.47c10.38-3.08,10.45,15.01,5.56,17.59-12.15,6.41-11.38-15.86-5.56-17.59Z"/>
      <path class="cls-1" d="M764.03,325.53c.36.1-.12,2.4,4.71,1.59,5.08-.85,22.84-10.59,20.58,2.51-1.38,7.99-17.92,10.19-24.38,9.43-16.16-1.91-22.42-19.75-.91-13.53Z"/>
      <path class="cls-1" d="M746.7,289.57c3.78-4.01,12.48-5.7,14.23.63,1.42,5.12-5.58,8.42-5.58,9.51,0,.78,10.42,8.7,1.75,12.74-11.19,5.22-19.28-13.48-10.4-22.88Z"/>
      <path class="cls-1" d="M785.05,239.5c12.69-2.57,28.81,14.23,17.54,17.55-5.81,1.71-7.99-3.23-12.24-4.33s-10.94.99-12.63-4.44c-1.31-4.21,3.62-8.03,7.33-8.78Z"/>
      <path class="cls-1" d="M781.58,265.51c5.79-5.42,12.18,1.95,11.67,9.08s-3.02,10.02-10.43,8.63c-5.26-.99-4.24-14.91-1.24-17.72Z"/>
      <path class="cls-1" d="M869.99,282.39c12.06-1.86.97,23.31-8.01,20.65-7.72-2.29,1.49-19.64,8.01-20.65Z"/>
      <path class="cls-1" d="M747.6,278.92c-4.74-1.56-5.57-18.59,5.02-15.47,6.24,1.84,6.61,19.29-5.02,15.47Z"/>
      <path class="cls-1" d="M1134.83,99.15c-8.96,9.48-17.6-11.73-4.22-10.83,5.42.37,7.38,7.49,4.22,10.83Z"/>
      <path class="cls-1" d="M1169.79,77.62c11.59-3.4,12.1,15.14-.01,11.58-5.06-1.49-5.05-10.09.01-11.58Z"/>
      <path class="cls-1" d="M1147.33,93.18c-5.63-5.63,5.07-16.23,9.81-8.32,5.08,8.48-5.57,12.56-9.81,8.32Z"/>
    </g>
  </g>
</svg>