<?xml version="1.0" encoding="UTF-8"?>
<svg id="_圖層_2" data-name="圖層 2" xmlns="http://www.w3.org/2000/svg" viewBox="0 0 1277.09 733.8">
  <defs>
    <style>
      .cls-1 {
        fill: #025e4a;
      }

      .cls-2 {
        fill: #f2bf33;
      }
    </style>
  </defs>
  <g id="_圖層_1-2" data-name="圖層 1">
    <g>
      <path class="cls-1" d="M1117.32,612.2c-.35,27.53-4.97,56.79-8.52,83.97-1.27,9.74-1.32,23.18-3.71,32.3-1.78,6.81-13.2,7.71-12.78-3.75,1.06-28.53,8.99-60.67,11-90.04,2.64-38.63-.94-83.18-5.11-121.87-3.69-34.2-9.43-82.19-25.5-112.5-17.68-33.36-60.32-50.87-93.36-65.12-7.24,18.42-17.47,37.28-29.6,52.91-3.21,4.13-7.14,10.8-12.82,10.06-11.45-1.51-26.94-24.05-35.24-31.86-8.38,5.01-17.29,11.32-21.09,20.66-8.04,19.76-15.75,69.81-17.25,91.75-5.2,76.07.52,156.32-3.1,233.1-.2,4.35-.35,12.06-.97,15.83-.76,4.62-3.84,6.44-8.41,5.55-7.55-1.48-3.6-14.4-3.49-19.45.48-22.31,1.64-44.76,2-67,1.39-84.64-6.69-170.7,15.82-253.09-.07-1.91-8.14-16.14-9.49-16.37-19.42,15.84-32.92,13.58-22.38-14.08-25.91,10.19-38.07,28.79-49.85,52.64-18.9,38.27-33.58,78.1-53.62,116.38-1.01,1.93-7.12,11.27-6.52,11.97,7.6-.26,25.92,17.21,25.93,23.51,0,2.86-3.51,6.54-6.4,6.57-7.71.08-13.5-18.38-27.02-18.16-45.83,9-92.05,15.34-138.51,20.09l4.73,20.76c2.47,15.02,2.4,30.18.27,45.22l69.54-.95c25.9-2.21,50.83-2.52,75.64-7.36,34.1-6.66,46.35-27.1,62.59-55.41-.62-38.46-3.98-77.3-.77-115.77.74-8.89,2.56-28.8,5.48-36.52,2.94-7.78,12.43-6.77,12.42,2.4-.01,10.29-4.56,24.78-5.7,35.41-3.71,34.48.81,69.17,1.84,103.67,1.36,45.89-.23,92.88-3.25,138.03-.33,4.93-.29,24.54-3.45,26.59-5.31,3.44-9.87.61-10.38-5.54-1.75-21.15,3.21-50.82,4.08-73,.66-16.83,0-33.8.95-50.54-8.65,8.79-14.91,20.1-24.51,27.98-29.12,23.89-82.4,18.24-117.94,23.06-22.69-2.31-51.11,2.93-73.09.01-5.8-.77-6.3-6.9-7.06-7.12-3.7-1.06-13.59,2.58-18.38,1.06.82,6.22-4.97,13.21-10.93,14.57-2.43.55-6.71-.04-8.11.89-.38.26-2.73,5.4-3.99,7.01-3.06,3.91-8.52,7.95-13.58,8.47-2.34.24-6.96-1.08-7.26-.86-.84.6-4.18,7.58-7.62,9.93-8.33,5.69-15.73,2.25-23.49-2.01-5.78,15.22-21.6,21.05-33.43,7.87-.64-.72-.19-2.64-1.2-2.93-3.04-.89-7.87,1.04-12.13-.69s-7.84-9.73-8.41-10.09c-2.26-1.43-8.4,1.8-14.25-4.25-1.33-1.38-4.37-7.45-4.8-7.7-1.75-.99-6.7-.08-10.75-2.76-8.8-5.84-4-15.51-11.04-20.45-.82,7.88.64,15.82.98,23.5.58,13.03.6,26.88,1.1,39.89.22,5.67,5.18,23.18-2.63,24.61l-360.48.59c-2.66-1.05-4.34-3.15-4.48-6.07,6.32-62.99,6.78-125.78,5.54-189.07-.33-16.61.87-41.6-1.01-56.99-.79-6.46-7.35-19.92-9.52-27.48-10.04-34.87-14.82-84.54,3.98-117.02,10.95-18.92,32.4-32.13,50.6-43.4,9.03-5.59,43.01-22.07,47.66-26.84,2.3-2.36,5.85-8.15,8.76-10.74,2.1-1.87,6.05-3.13,7.46-4.54,1.63-1.64,2.15-5.15,4.55-7.45,2.99-2.86,8.12-2.96,9.59-6.41s3.72-21.64,3.91-26.13c.53-12.62-22.95-44.58-29.2-57.78-15.85-33.41-20.23-76.95,9.18-104.2,3.2-2.96,10.92-6.79,12.71-8.79,7.83-8.77,7.76-14.82,19.99-23.52C184.19-1.24,236.62-4.25,266.59,5.26c.89.28.72,1.96,1.31,1.96,13.59-.05,30.5,7.91,46.96,8.02,6.72.04,12.03-3.39,17.45,2.47,11.63,12.57,2.94,40.39-10.79,49.1l7.53,28.16c1.96,11.01,3.21,22.38,2.15,33.61-.79,8.35-9.14,29.69-8.62,34.97.31,3.18,6.89,14,8.06,18.83,2.54,10.52-4.74,10.77-7.05,16.58-3.98,10.02-5.1,26.93-9.24,38.76-11.22,32.01-29.4,44.26-64.02,36.49,3.6,2.85,6.6,10.45,9.63,12.86,11.51,9.16,39.94,18.46,54.37,27.13,39.83,23.95,40.66,73.01,45.88,114.62,5,39.82,8.55,80.03,11.38,119.61.76,10.65,2.21,6.19,9.46,8.55,6.39,2.08,2.12,5.89,11.64,5.1,10.97-.92,26.15-5.08,36.86-8.13,22.09-6.3,37.27-16.85,61.31-9.78,23.62,6.95,44.62,32.26,71.46,27.04-2.01-1.08,3.51-6.4,4.71-6.78,14.19-1.79,28.55-2.46,42.73-4.26,1.87-.24,4.15-1.51,7.55-1.95,8.83-1.15,17.8-1.5,26.6-2.83,21.49-3.23,42.72-7.86,64.17-11.41,13.97-23.92,25.92-48.89,37.46-74.08.62-1.36.46-3.01.77-3.68,14.64-31.93,32.29-83.28,61.28-103.22,9.68-6.66,26.64-12.44,34.24-18.76,3.11-2.59,5.99-8.62,8.97-12.03,2.04-2.33,11.99-11.1,12.36-12.69.09-.41-.55-8-.84-8.31-.64-.67-15.38,1.14-18.49.99-30.18-1.52-36.56-19.45-41.26-45.73-1.33-7.43-2.56-14.98-2.23-22.55-9.6-5.46-16.94-11.01-13.24-23.43,2.16-7.26,13.35-17.61,14.98-24.02,1.21-4.79,0-13.75.24-19.26.54-11.8,1.52-22.29,5.61-33.5-31.26-37.62,1.7-61.16,34.37-77.02,40.33-19.57,96.83-9.07,132.02,17.52,55.05,41.6,38.79,135.28-1.98,181.52-2.64,3-15.56,13.15-15.9,14.16-.63,1.86,2.51,15.12,3.56,15.35,1.85.42,3.58-.3,6.07.72,4.7,1.94,12.98,16.2,14.81,21.21.55,1.49.05,3.91.63,4.85.45.73,13.53,5.37,15.99,6.51,49.38,22.72,83.22,41.04,98.53,96.47,14.97,54.2,21.99,130.87,21.28,187.22ZM309.22,71.28c-29.91,6.32-60.72,4.03-90.9.92,2.86,17.03-.1,33.65-7.45,49.04-2.3,4.83-6.82,10.43-8.77,15.23-2.09,5.13-3.52,22.77-13.34,16.79-2.38-1.45-7.03-12.16-10.39-15.61-12.69-13.03-29.45-5.26-31.03,12.05-1.13,12.45,7.07,34.77,20.72,37.26,4.53.83,16.27-.57,16.34,6.71.09,10.73-19.16,7.43-25.06,3.53-.94,16.11-2.55,32.09-5.57,48,24.44,19.19,49.03,38.52,76.07,53.99,5.32-8.69,6.63-18.96,5.03-29.03-10.01-3.98-38.35-18.83-40.36-29.71-.92-4.97,1.86-8.58,7.09-7.08,1.04.3,10.35,9.44,12.81,11.25,17.94,13.19,60.85,30.06,77.74,8.91,7.88-9.86,16.36-37.21,17.18-49.83.18-2.75-5.73-1.14-8.3-1.71-4.11-.9-5.52-3.9-4.27-7.83,2.05-6.44,7.05-1.86,11.85-2.99.74-.18.77-1.61,1.47-1.89,3.93-1.62,7.51-.29,5.81-7.08-2.48-9.93-13.82-23.09-14.6-33.5-.91-12.31,11.64-10.65,12.03.51.29.29,1.19-.52,1.49-.99,1.6-2.51,4.25-17.11,4.45-20.56.1-1.65.38-1.58-1.26-1.26-4.56.9-11.4,2.6-12.55-3.93-1.48-8.41,6.12-5.36,10.13-6.29.59-.14,1.34-3,3.71-1.98-1.85-14.68-4.08-29.31-10.1-42.91ZM929.94,191.78c-8.39,4.58-16.46,20.61-23.8,5.11-2.59-5.46-3.44-12.34-6.25-17.75-5.61-10.8-23.44-18.87-33.03-26.97-9.27-7.84-21.41-19.91-20.54-32.97-19.28,13.29-29.3,26.39-31.03,50.46-.59,8.25,1.45,19.24.64,26.55-.92,8.32-17.02,27.21-16.44,30.34.71,3.81,11.63,5.89,13.32,9.66,1.29,2.87.79,18.16,2.1,19.1,3.78,2.7,15.19-.16,19.65-1.38,4.08-1.12,11.85-7.16,14.34.22,4.17,12.35-23.55,16.17-31.57,15.06,2.12,8.94,1.93,18.61,10.06,24.43,11.92,8.53,29.73,4.22,42.45-.42,4.83-1.76,18.76-10.46,21.99-5.03,4.66,7.83-11.99,15.95-17.58,17.61l3.95,20.03,3.14,39.37c21.9-20.65,48.43-36.42,67.79-59.63-5.11-12.44-5.17-25.99-8.86-38.8-.64-2.22-4.56-13.51-5.44-14.56-2.15-2.59-13.02,1.47-15.99-5.01-3.6-7.83,5.23-6.17,8.93-7.04,2.34-.55,7.19-1.87,9.38-2.62,24.75-8.53,24.56-56.06-6.09-47.28-.88.25-.83,1.38-1.11,1.54ZM146.21,252.29c-2.63-1.89-6.54,4.19-2.74,7.28l46.35,83.63,31.49-33.5c-25.08-16.6-52.58-32.71-73.54-54.48-.85-.89-1.39-2.81-1.56-2.94ZM259.32,329.19c-3.35-11.61-4.05-26.11-12.99-34.99l-7.91,15.36,17.39,17.64,3.5,1.99ZM937.31,383.2c6.39-11.5,14.89-21.75,21.19-33.32,6.64-12.21,16.53-28.23,3.33-39.65-13.52,18.24-32.44,31.74-49.46,46.58-.35,1.66,19.48,23.38,22.44,25.42.84.58,1.05,1.37,2.5.97ZM866.32,336.21c-1.68-1.96-10.24,10.29-11.02,11.47-4.16,6.22-7.76,13.38-9.96,20.53,5.09-3.53,12.59-7.83,18.02-2.53l4.96,6.52-2-35.99ZM219.31,405.2l.99-52.48c-1.17-2.07-9.04-12.88-10.47-12.52-3.67,6.11-10.64,9.62-13.32,16.33l22.8,48.67ZM261.17,347.36l-8.83-5.15c-.08,2.2-1.11,4.22-1.05,6.45.23,8.34,6.58,26.96,8.58,36.51,1.07,5.11,1.51,10.42,2.47,15.53.27,1.46,0,3.1,1.98,3.51-1.37-18.94-.93-37.94-3.15-56.85ZM566.18,585.34c-10.21-.18-19.91-.75-29.63-3.87-26.91-8.64-55.91-42.69-83.25-17.79-3.62,3.3-17.94,20.55-17.06,24.89.37,1.8,5.44,1.62,7.1,1.19,7.25-1.88,19.56-15.2,25.93-17.1,10.07-3,19.02,4.92,26.06,11.03,13.13,11.4,29.1,25.51,41.51,37.49,2.46,2.37,10.67,13.15,11.46,13.54,4.64,2.28,16.58-.73,22.01-.51-.06-16.36,1.04-33.2-4.15-48.86ZM435.32,565.21l-48.57,10.92c-.27,19.09-4.84,37.48-8.42,56.05,3.99-1.04,8.38,3.95,11.49,3.95,2.16,0,4.83-2.82,7.2-3.72,8.8-3.34,12.96-2.39,19.31,4.32.7.74.94,2.36,1.06,2.45.49.37,6.34-2.99,11.96-1.5,6.98,1.85,8.9,10.03,10.94,11.05,2.82,1.41,8.71-.18,12.94,2.06,3.56,1.88,4.08,6.2,6.1,7.9,1.69,1.43,5.37,1.72,7.92,3.08,7.4,3.92,18.31,22.25,26.6,13.48,5.13-5.43,1.24-4.71-2.45-7.63-8.75-6.91-17.42-13.91-26.16-20.84-3.55-5.87,1.33-12.93,8.03-10.03l36.51,28.55c5.85,2.19,13.25-3.98,6.54-10.6-10.24-10.11-23.94-18.41-34.06-28.93-3.86-6.73,2.26-13.34,9.01-9,12.3,7.92,25.06,24.39,37.71,32.28,4.1,2.56,9.56,2.71,9.33-3.21-.41-10.2-21.64-24.39-29-31.11-6.27-5.71-26.79-27.22-32.96-29.09-1.76-.53-2.24-.53-3.97.09-3.36,1.2-12.72,9.37-17.14,11.9-9.01,5.15-16.82,9.1-26.41,1.58-12.26-9.62-1.48-25.56,6.49-33.99ZM373.33,568.2l-14.01-1c-.8,24.42-5.69,48.27-10.99,72.01,3.56-2.7,12.78,1.18,14.8-2.69,5.77-22.37,11.59-44.95,10.19-68.32ZM403.08,643.37c-6.19,1.01-10.76,10.11-5.13,11.78,1.98.59,10.09-7.45,10.29-8.58.45-2.54-3.26-3.51-5.16-3.2ZM423.08,650.41c-3.74.94-12.05,9.87-10.26,13.76,5.52,12.01,26.4-17.8,10.26-13.76ZM443.04,660.35c-1.34.37-11.48,11.33-12.27,12.89-.66,1.31.39,3.78,1.54,4.49,8.28,5.11,23.41-20.9,10.72-17.38ZM459.98,672.41c-1.65.15-9.27,9.39-9.56,10.49-.9,3.4,3.84,5.81,7.17,5.13,3.65-.75,10.12-8.94,7.83-12.35-.85-1.26-3.82-3.41-5.44-3.26Z"/>
      <path class="cls-2" d="M974.32,84.2c38.77-5.52,80.88.64,117.52,13.98,141.24,51.41,217.48,206.82,172.2,351.23-22.53,71.86-77.65,133.08-146.71,162.79.71-56.35-6.32-133.02-21.28-187.22-15.31-55.44-49.15-73.76-98.53-96.47-2.47-1.13-15.54-5.77-15.99-6.51-.58-.94-.09-3.35-.63-4.85-1.83-5-10.11-19.26-14.81-21.21-2.49-1.03-4.22-.31-6.07-.72-1.04-.23-4.19-13.49-3.56-15.35.34-1.01,13.26-11.16,15.9-14.16,40.77-46.25,57.03-139.93,1.98-181.52ZM1113.7,263.81c-10.33-9.92-21.93-27.88-38.7-19.43-15.03,7.58-1.24,27.1,5.49,36.15,8.73,11.74,20.33,22.03,29.63,33.37.42,2.57.31,5.2.19,7.79-.7,15.46-10.4,46.33-5.43,59.45,2.23,5.89,7.95,7.91,13.88,6.99,11.1-1.73,18.83-25.17,23.79-34.21.3-.55,1.13-2.17,1.76-1.72,3.69,8.76,21.27,19.06,24.47,27.04,3.22,8.02-2.63,19.56,5.11,29.89,12.94,17.29,22.01-12.89,27.94-18.92,6.71-6.82,31.75-12.88,33.05-17.9,1.06-4.07-.48-10.79-3.5-13.68-1.68-1.61-3.05-.93-4.27-1.54-.91-.45-.86-1.71-1.51-1.86-5.9-1.39-25.6,1.68-29.29-.54-1.07-.64-12.71-17.1-15.03-19.97s-6.7-5.28-6.97-9.52c6.18.23,12.29-1.66,18.21-3.29s20-5.66,24.71-8.29c6.41-3.56,6.8-15.17,1.03-19.89-10.97-8.99-38.8-3.91-52.42-3.5-8.25.25-16.59-.08-24.84-.25-9.04-8.8-18.23-17.46-27.32-26.19Z"/>
      <path class="cls-2" d="M414.32,254.2c-.25,73.98.19,148.02,0,222h-20.5c-5.15,0-9.12,12.72.95,14.05,63.18.05,126.38-.25,189.55-.05,18.78.06,37.77-.61,56.54-.04,4.28.13,7.86,2.19,12.45.05-6.76,24.69-18.19,49.55-35.99,68-3.4.44-5.68,1.71-7.55,1.95-14.18,1.8-28.55,2.48-42.73,4.26-1.2.38-6.72,5.69-4.71,6.78-26.84,5.22-47.84-20.09-71.46-27.04-24.04-7.07-39.22,3.48-61.31,9.78-10.7,3.05-25.89,7.21-36.86,8.13-9.52.8-5.25-3.02-11.64-5.1-7.25-2.36-8.7,2.11-9.46-8.55-2.84-39.58-6.39-79.79-11.38-119.61-5.22-41.61-6.05-90.67-45.88-114.62-.02-1.98,1.35-2.77,2.48-4.02,25.4-27.98,60.07-49.09,97.52-55.98Z"/>
      <path class="cls-1" d="M414.32,254.2c.06-18.54-2.06-43.94-.02-61.52.51-4.43,2.11-5.99,6.5-6.5,8.1-.94,21.3-.8,29.98-1.02,17.49-.45,35.06.42,52.54.04v-106.5c0-.67,4.29-4.1,5.63-4.25,8.53-.93,7.74,11.33,7.37,16.75h68.5c1.26,0,3.33,3.82,3.55,5.45,1.11,8.3,1.13,38.83,0,47.1-.3,2.17-2.53,5.45-4.55,5.45h-67.5v36h104.5c1.86,0,5,4.3,4.52,6.48-.01,49.5-.05,99.03-.02,148.52.03,45.32-.02,90.69,0,136.01,1.06,1.06,25.82-1.1,30.01,0,4.66,1.22,6.22,11.72-.53,12.97-21.66.27-43.33-.26-64.99,0-1.69.02-4.45-.64-5.49,1.02-63.17-.19-126.37.1-189.55.05-10.07-1.34-6.1-14.05-.95-14.05h20.5c.19-73.98-.25-148.02,0-222ZM576.32,104.2h-60v32h60v-32ZM612.32,198.2l-185,1v277h50v-64.5c0-4.05,4.23-5.25,7.45-5.55,22.84-2.1,48.87,1.66,72.06.05,1.99-.22,5.48,1.38,5.48,3.5v66.5h50V198.2ZM514.32,419.2h-24v57h23v-55.5c0-.21,1.5-1.14,1-1.5ZM549.32,419.2h-23v57h23v-57Z"/>
      <path class="cls-2" d="M802.32,177.2c-.25,5.51.97,14.47-.24,19.26-1.62,6.41-12.81,16.77-14.98,24.02-3.7,12.42,3.64,17.97,13.24,23.43-.33,7.56.9,15.11,2.23,22.55,4.7,26.28,11.08,44.21,41.26,45.73,3.12.16,17.86-1.66,18.49-.99.29.3.94,7.9.84,8.31-.37,1.58-10.31,10.35-12.36,12.69-2.98,3.4-5.86,9.44-8.97,12.03-7.6,6.32-24.56,12.1-34.24,18.76-28.99,19.94-46.64,71.29-61.28,103.22-31.03-74.94-24.4-159.62,12.31-231.19,9.62-18.76,23.23-39.44,38.14-54.39,1.62-1.62,2.88-3.41,5.55-3.42Z"/>
      <path class="cls-1" d="M1032.06,392.42c6.18-1.24,9.85,2.84,7.82,8.85-.98,2.91-9.9,7.02-13.08,9.92-19.03,17.35-21.07,48.32-18.58,71.63,6.07,56.79,17.92,111.64,15.12,168.91-1.14,23.3-2.21,52.13-6.11,74.89-1.65,9.66-13.25,10.06-12.95-2.95.47-20.4,4.88-43.07,6.04-63.96,3.51-62.98-9.94-117.65-15.87-179.11-2.04-21.19-.19-36.81,8.41-56.34,4.56-10.36,17.39-29.46,29.2-31.82Z"/>
      <path class="cls-2" d="M625.32,340.2c2.44.35,5.13,5.11,6.41,7.09,21.14,32.6,30.19,76.88,26.57,115.4-.39,4.18-1.4,9.62-2.98,13.52-4.19-1.09-28.94,1.07-30.01,0-.01-45.32.03-90.69,0-136.01Z"/>
      <path class="cls-1" d="M1113.7,263.81c9.09,8.73,18.28,17.39,27.32,26.19,8.24.16,16.59.5,24.84.25,13.62-.42,41.46-5.49,52.42,3.5,5.77,4.73,5.37,16.33-1.03,19.89-4.72,2.62-18.89,6.69-24.71,8.29s-12.03,3.52-18.21,3.29c.26,4.24,4.55,6.54,6.97,9.52s13.96,19.32,15.03,19.97c3.69,2.22,23.39-.85,29.29.54.65.15.59,1.41,1.51,1.86,1.22.6,2.59-.07,4.27,1.54,3.02,2.88,4.56,9.61,3.5,13.68-1.31,5.03-26.34,11.08-33.05,17.9-5.93,6.03-15,36.21-27.94,18.92-7.73-10.33-1.89-21.87-5.11-29.89-3.2-7.98-20.79-18.28-24.47-27.04-.63-.44-1.46,1.17-1.76,1.72-4.95,9.04-12.69,32.48-23.79,34.21-5.93.92-11.65-1.1-13.88-6.99-4.97-13.12,4.73-43.99,5.43-59.45.12-2.59.23-5.22-.19-7.79-9.3-11.35-20.9-21.63-29.63-33.37-6.73-9.05-20.52-28.57-5.49-36.15,16.77-8.45,28.36,9.51,38.7,19.43ZM1182.32,378.7c.85,5.11-.62,12.13,0,17.5,4.75-5.21,6.77-12.56,12.53-16.97l22.47-12.03h-26.5c-6.48-7.92-12.23-16.4-18.53-24.47-5.82-7.46-28.71-26.73-6.36-28.43,10.68-.81,10.55-1.03,20.18-4,6.65-2.05,14.29-3.61,20.81-5.99.99-.36,3.2-.73,1.4-2.1-1.46-1.11-19.27-1.11-22.55-1.05-9.82.16-21.09,1.86-30.91,2.09-8.85.21-16.19,1.11-23.56-4.52-7.77-5.94-22.73-21.41-30.02-29-5.94-6.18-9.23-15.16-19.95-14.51-2.1,1.94,10.12,19.03,12.02,21.47,17.89,22.95,39.41,44.71,59.01,65.99,6.48,7.04,28.71,28.49,29.96,36.04ZM1117.31,376.2l17-33.53-12.49-15.46c-.44,13.27-4.26,26.38-5.48,39.5-.1,1.05-1.12,10.95.97,9.49Z"/>
      <path class="cls-1" d="M258.73,218.78c-3.9-2.49-9.9-7.68-4.96-12.63s13.31,3.04,18.87,5.23c4.15,1.64,9.87,3.5,14.29,3.72,3.51.17,8.53-3.07,10.86,2.12,1.67,3.72.6,6.33-2.78,8.18-9.2,5.04-27.83-1.21-36.29-6.62Z"/>
      <path class="cls-1" d="M265.1,111.48c5.24-.63,21.33-.55,21.32,7.22,0,8.61-12.69,4.02-18.35,4.76s-15,6.38-18.43,6.48c-1.41.04-3.63-1.1-4.4-2.18-6.34-8.87,13.49-15.53,19.85-16.29Z"/>
      <path class="cls-1" d="M160.65,156.9c-6.12-8.7,5.63-15.3,13.11-4.63,8.27,11.8-3.37,23.66-8.64,12.64-2.15-4.48-1.61-3.96-4.46-8.02Z"/>
      <path class="cls-1" d="M271.07,139.36c8.4-1.54,8.59,11.93,7.06,17.14-.92,3.14-6.52,3.59-8.81,2.21-3.9-2.36-5.3-18.06,1.75-19.35Z"/>
      <path class="cls-1" d="M824.62,160.5c3.2-2.29,12.16-2.66,16.1-2.19,6.08.72,16.52,7.08,14.41,14.17-2.67,8.97-12.32-1.71-17.55-2.04-4.61-.29-19.34,7.86-17.25-3.7.15-.84,3.78-5.86,4.3-6.24Z"/>
      <path class="cls-1" d="M937.06,219.94c-.4.4-4.98,2.6-5.63,2.73-10.65,2.14-2.68-21.05,6.39-20.56,2.87.16,5.62,2.58,5.6,5.6,0,1.14-5.58,11.45-6.37,12.23Z"/>
      <path class="cls-1" d="M839.09,189.44c5.03,5.02-2.2,23.65-10.09,17.83-6.79-5,1.84-26.07,10.09-17.83Z"/>
      <path class="cls-1" d="M538.59,376.95c-1.17-1.25-1.16-3.55-1.3-5.2-1-11.75-1.07-34.39,0-46.09.28-3.11.6-5.92,3.99-7.01,3.62-1.17,31.6-1.05,36.58-.46s6.09,2.64,6.53,7.47c.98,10.72,1.2,35.59-.02,46.07-.33,2.85-1.5,5.54-4.27,6.73-3.15,1.35-30.44,1.31-35.27.78-1.55-.17-5.26-1.26-6.22-2.28ZM571.32,331.2h-21v35h21v-35Z"/>
      <path class="cls-1" d="M457.59,376.95l-.18-56.17c.54-.92,1.4-1.28,2.32-1.68,3.55-1.51,31.01-1.52,36.12-.93,4.65.54,6.96,2.91,7.5,7.5,1.13,9.66,1.13,36.37,0,46.04-.33,2.85-1.5,5.54-4.27,6.73-3.16,1.35-30.43,1.31-35.27.78-2.29-.25-4.27-1.17-6.22-2.28ZM490.32,331.2h-22v35h22v-35Z"/>
      <path class="cls-1" d="M541.02,227.4c11.68.82,26.58-1.76,37.86-.24,3.84.52,5.04,2.77,5.47,6.53,1.13,9.7,1.13,36.35,0,46.05-.23,1.99-1.11,5.07-3.02,5.98-1.79.85-34.76,1.05-38.55.55-2.36-.31-3.6-1.06-4.93-3.07.37-15.42-2.29-34.46-.55-49.5.31-2.63,1.16-5.1,3.72-6.28ZM571.32,240.2h-21v33h21v-33Z"/>
      <path class="cls-1" d="M457.56,284.97l-.3-55.32c.63-.6,1.31-1.6,2.08-1.92,2.4-.98,34.37-1.13,38.53-.57,4.49.6,5.13,3.47,5.5,7.5.95,10.49,1.18,34.83-.03,45.07-.33,2.77-1.1,5.11-3.96,6.04-4.12,1.33-30.83.95-36.6.48-1.83-.15-3.67-.15-5.22-1.28ZM490.32,240.2h-22v33h22v-33Z"/>
    </g>
  </g>
</svg>