<?xml version="1.0" encoding="UTF-8"?>
<svg id="_圖層_2" data-name="圖層 2" xmlns="http://www.w3.org/2000/svg" viewBox="0 0 342.99 342.68">
  <defs>
    <style>
      .cls-1 {
        fill: #1e716a;
      }

      .cls-2 {
        fill: #e3a413;
      }

      .cls-3 {
        fill: #e0a416;
      }
    </style>
  </defs>
  <g id="_圖層_1-2" data-name="圖層 1">
    <g>
      <g>
        <path class="cls-2" d="M221.29,269.66v-59.61c0-.08,1.07-1.15,1.15-1.15h24.63c2.81,0,9.45-6.41,10.78-9.22,3.93-8.28,1.56-14.23-3.85-20.78-11.46-13.88-26.78-28.13-39.27-41.51-6.9-7.39-28.83-34.25-36-37.08-7.55-2.98-14.47-.49-20.2,4.73l-71.48,77.77c-4.31,6.57-3.14,16.45,2.72,21.79,1.08.98,6.95,4.31,8,4.31h23.86c.08,0,1.15,1.07,1.15,1.15v59.61c-5.1-1.27-10.91-5.1-15.32-8.15-58.8-40.54-63.49-127.91-9.67-174.88,54.91-47.92,141.39-31.42,174.06,33.66,27.71,55.19,5.08,123.23-50.57,149.37Z"/>
        <path class="cls-1" d="M99.32,199.67c-4.67-1.04-7.49-8.02-4.24-11.93,21.92-22.41,41.98-46.81,63.86-69.23,8.91-9.14,12.83-15.59,23.5-2.68,19.34,23.48,43.73,44.5,63.1,67.68,3.44,4.12,7.54,8.62,3.01,13.79-4.84,5.52-18.58,2.24-25.37,2.34-3.44.05-7.39,1.52-11.13.79l.04,101.94c-1.44,6.11,1.21,13.97-7.33,14.98-20.36,2.42-45.37-1.87-66.23.02-2.83.14-6.51-4.25-6.51-6.57v-111.13h-32.71ZM120.49,184.29h21.93c1.54,0,5.77,4.23,5.77,5.77v91.13h47.71v-91.13c0-1.32,4.22-5.77,5.77-5.77h22.7l-51.95-56.15-51.93,56.15ZM195.9,296.57h-47.71v5.38h47.71v-5.38Z"/>
      </g>
      <path class="cls-3" d="M48.52,51.68C136.21-38.41,289.15-5.87,332.17,111.72c50.01,136.68-81.9,269.95-218.96,220.37C-3.32,289.94-38.53,141.14,48.52,51.68ZM162.7,13.13C37.93,20.04-31.71,165.29,44.82,265.86c69.1,90.8,207.99,82.31,264.39-17.09C370.77,140.25,286.6,6.27,162.7,13.13Z"/>
    </g>
  </g>
</svg>