<?xml version="1.0" encoding="UTF-8"?>
<svg id="_圖層_2" data-name="圖層 2" xmlns="http://www.w3.org/2000/svg" viewBox="0 0 344.86 344.85">
  <defs>
    <style>
      .cls-1 {
        fill: #dfa41b;
      }

      .cls-2 {
        fill: #1d6d66;
      }

      .cls-3 {
        fill: #fbfbfb;
      }
    </style>
  </defs>
  <g id="_圖層_1-2" data-name="圖層 1">
    <g>
      <path class="cls-1" d="M156,.6c175.88-13.66,258.7,209.87,116.83,311.51C144.18,404.27-29.27,288.17,4.21,134.05,19.46,63.84,83.83,6.2,156,.6ZM159.86,13.73C69,20.12,1.04,106.06,14.88,196.05c18.93,123.13,168.54,178.46,262.68,95.29C391.54,190.64,311.84,3.06,159.86,13.73Z"/>
      <path class="cls-2" d="M177.03,127.49c32.72,43,66.37,85.27,98.65,128.61,3.95,5.3,14.93,13.42,5.96,19.22l-217.15.2c-5.06.27-6.85-4.08-5.36-8.52,35.96-45.56,70.79-92.1,105.88-138.37,2.06-20.72-1.31-43.24.39-63.75.29-3.44.89-6.62,5.06-6.58,7.7.07,6.01,7.96,6.56,8.55,1.39,1.48,35.61-1.12,40.64-.04,3.06.21,4.68,3.05,5,5.82.84,7.08.95,29.44.02,36.38-.16,1.19-2.45,4.98-3.52,4.98h-42.14v13.52ZM211.05,77.65h-32.86c-.08,0-1.16,1.08-1.16,1.16v24.34h34.02v-25.5ZM170.56,140.29l-32.84,42.96c-1.89,3.04.16,4.38,3.01,2.24,4.22-3.17,5.23-8.16,11.97-7.43,4.54.49,9.39,10.4,11.46,10.04,2.32-.4,8.77-13.34,14.15-13.62,7.08,1.1,10.43,9.76,16.22,13.63,2.35-1.3,8.47-6.57,7.71-9.24-.35-1.22-4.42-6.07-5.57-7.62-7.63-10.31-16.31-19.88-23.84-30.27-.61-.65-1.4-.94-2.27-.67Z"/>
      <path class="cls-3" d="M170.56,140.29c.87-.27,1.66.03,2.27.67,7.53,10.39,16.21,19.96,23.84,30.27,1.15,1.55,5.22,6.4,5.57,7.62.77,2.67-5.35,7.94-7.71,9.24-5.79-3.87-9.14-12.53-16.22-13.63-5.37.28-11.83,13.23-14.15,13.62-2.07.35-6.92-9.55-11.46-10.04-6.74-.73-7.75,4.26-11.97,7.43-2.85,2.14-4.9.8-3.01-2.24l32.84-42.96Z"/>
      <path class="cls-1" d="M211.05,77.65v25.5h-34.02v-24.34c0-.08,1.08-1.16,1.16-1.16h32.86Z"/>
    </g>
  </g>
</svg>