<?xml version="1.0" encoding="UTF-8"?>
<svg id="_圖層_2" data-name="圖層 2" xmlns="http://www.w3.org/2000/svg" viewBox="0 0 343.11 342.54">
  <defs>
    <style>
      .cls-1 {
        fill: #1c6e68;
      }

      .cls-2 {
        fill: #e1a417;
      }
    </style>
  </defs>
  <g id="_圖層_1-2" data-name="圖層 1">
    <g>
      <path class="cls-2" d="M158.53.4c143.29-9.48,235.77,149.56,153.92,268.43-70.77,102.79-223.61,96.63-287.98-9.54C-41.18,151.03,32.62,8.73,158.53.4ZM313.66,103.72C235.17-54.17,2.93,10.06,13.25,183.6c4.6,77.32,72.24,141.37,148.86,145.78,118.73,6.83,204.9-118.31,151.54-225.66Z"/>
      <path class="cls-1" d="M88.93,278.31c-54.58-26.5-60.95-100.98-15.25-139.67,46.55-39.4,124.16-21.73,139.59,39.64,17.76,70.64-58.99,131.75-124.34,100.02ZM126.21,129.62c-45.72,3.22-79.85,45.81-68.73,91.3,12.75,52.13,77.16,70.27,117.72,36.12,55.75-46.94,24.46-132.59-49-127.42Z"/>
      <path class="cls-1" d="M220.25,198.6c1.14-3.6-1.9-10.56-1.36-13.37.2-1.05,4.8-4.85,5.95-6.26,29.48-36.14,23.78-89.11-16.68-114.03-45.63-28.1-102.42,2.11-109.08,53.71l-12.72,5.35c1.06-16.29,6.32-32.14,15.53-45.62,26.6-38.91,79.36-47.69,117.84-20.38,41.28,29.3,47.61,90.04,14.77,128.31-1.22,1.42-12.97,13.7-14.24,12.29Z"/>
      <path class="cls-1" d="M176.47,278.51c-.23-.35-.21-1.66.06-2.11.32-.54,9.8-6.83,10.42-6.93.83-.13,13.23,3.83,16.2,4.29,65.85,10.03,110.22-65.73,66.75-116.7-1.78-2.09-11.62-10.42-11.8-11.21-.42-1.74,2.75-9.65,1.41-12.62,1.58-1.62,14.47,10.09,16.18,11.9,48.03,50.79,17.75,131.94-50.63,141.71-10.29,1.47-21.45-.27-31.59-2.62-2.49-.57-16.12-4.42-16.98-5.71Z"/>
      <path class="cls-1" d="M239.49,121.7v12.31c-13.55-3.66-25.45-5.44-39.54-3.75-2.9.35-8.52,2.42-10.84,2.2-1.29-.12-11.19-6.81-11.19-8.05,0-.67,9.22-3.65,10.62-4.02,16.45-4.35,34.68-3.29,50.96,1.32Z"/>
      <path class="cls-2" d="M142.66,196.94c-.32-13.24,4.63-26.99,12.63-37.49,2.24-2.93,11.2-12.39,14.22-13.54,1.05-.4,1.16-.4,2.21,0,2.04.78,10.19,8.36,11.99,10.39,6.88,7.79,13.6,21.01,14.78,31.37.81,7.1,1.79,9.04-4.77,11.72-15.58,6.36-36.02,4.75-51.06-2.45Z"/>
      <path class="cls-1" d="M164.81,141.73c1.21,1.77-6.39,7.32-8.06,9.18-26.49,29.69-24.32,71.08,2.68,99.63,1.36,1.43,6.69,5.06,6.89,6.23.31,1.75-8.07,6.46-9.59,6.42-3.5-.09-15.39-15.76-17.62-19.27-16.75-26.43-17.49-61.73-.76-88.32,2.33-3.7,11.82-16.71,15.53-17.61,1.49-.36,10.55,3.2,10.92,3.74Z"/>
      <path class="cls-1" d="M99.43,141.69c2.3,12.68,7.22,24.99,15.42,34.97,1.52,1.86,7.05,6.34,7.52,7.87.98,3.25-1.7,10.16-.62,14.06-1.35,1.47-12.53-9.71-13.83-11.17-6.07-6.84-11.91-16.24-15.23-24.77-1.06-2.71-4.67-12.9-3.93-15.07.6-1.78,10.02-6.5,10.67-5.91Z"/>
      <path class="cls-1" d="M198.7,202.45c.59.61-.67,11.93-1.73,12.88-3.92,3.51-27.5,4.45-33.27,4.02-2.79-.21-17.13-2.73-18.68-4.01-1.43-1.18-1.63-10.22-2.5-12.5.06-1.44,9.27,2.33,10.46,2.62,16.1,3.9,30.26,2.76,45.73-3.02Z"/>
    </g>
  </g>
</svg>