<?xml version="1.0" encoding="UTF-8"?>
<svg id="_圖層_2" data-name="圖層 2" xmlns="http://www.w3.org/2000/svg" viewBox="0 0 342.99 342.68">
  <defs>
    <style>
      .cls-1 {
        fill: #1c6f68;
      }

      .cls-2 {
        fill: #e0a416;
      }
    </style>
  </defs>
  <g id="_圖層_1-2" data-name="圖層 1">
    <g>
      <path class="cls-2" d="M48.52,51.68C136.21-38.41,289.15-5.87,332.17,111.72c50.01,136.68-81.9,269.95-218.96,220.37C-3.32,289.94-38.53,141.14,48.52,51.68ZM162.7,13.13C37.93,20.04-31.71,165.29,44.82,265.86c69.1,90.8,207.99,82.31,264.39-17.09C370.77,140.25,286.6,6.27,162.7,13.13Z"/>
      <path class="cls-1" d="M151.3,129.03c.24-1.82,1.79-3.09,3.09-4.23,50.07-44.23,127.21,24.21,75.05,83.47-20.81,23.64-47.05,45.05-68.11,68.83-5.63,5.13-14.22,6.15-20.02.77-22.04-25.13-51.88-47.74-73.08-73.1-9.82-11.74-14.76-24.38-14.35-39.84.56-21.4,14.29-41.71,34.13-49.56,21.66-8.56,46.42-3.58,62.17,13.65h1.12Z"/>
      <path class="cls-2" d="M113.62,105.19c-1.4-1.34,5.34-7.4,6.56-8.43,18.41-15.58,46.97-16.54,66.8-2.97,1.7,1.17,9.42,8.5,10.11,8.33,24.1-27.53,69.28-21.96,87.49,9.48,12.25,21.14,9.52,48.56-6.27,67.06-21.15,24.78-49.76,46.89-71.57,71.52-2.23,2.01-8.24,4.23-11.05,3.34-.92-.29-1.84-1.34-.91-2.21l44.66-44.59c12.38-16.03,16.61-35.32,12.02-55.1-10.5-45.21-66.61-61.41-101.29-31.79-10.51-8.08-22.86-14.77-36.55-14.65Z"/>
    </g>
  </g>
</svg>